<svg width="118" height="23" viewBox="0 0 118 23" fill="none" xmlns="http://www.w3.org/2000/svg">
<path d="M5.79346 11.1919H9.73389V16.5679C9.08936 16.7778 8.46924 16.9268 7.87354 17.0146C7.28271 17.1025 6.64307 17.1465 5.95459 17.1465C4.3335 17.1465 3.0835 16.668 2.20459 15.7109C1.32568 14.749 0.88623 13.394 0.88623 11.646C0.88623 9.92236 1.38184 8.57471 2.37305 7.60303C3.36426 6.62646 4.729 6.13818 6.46729 6.13818C7.58545 6.13818 8.64502 6.35303 9.646 6.78271L9.03076 8.24023C8.16162 7.83984 7.29248 7.63965 6.42334 7.63965C5.28076 7.63965 4.37744 7.99854 3.71338 8.71631C3.04932 9.43408 2.71729 10.4155 2.71729 11.6606C2.71729 12.9692 3.01514 13.9653 3.61084 14.6489C4.21143 15.3276 5.07324 15.667 6.19629 15.667C6.7627 15.667 7.36816 15.5962 8.0127 15.4546V12.6934H5.79346V11.1919ZM20.7568 17H18.999V12.1733H14.0625V17H12.312V6.29199H14.0625V10.6719H18.999V6.29199H20.7568V17ZM23.3057 15.6035C23.3057 15.0566 23.4521 14.6432 23.7451 14.3633C24.0381 14.0833 24.4645 13.9434 25.0244 13.9434C25.5648 13.9434 25.9814 14.0866 26.2744 14.373C26.5739 14.6595 26.7236 15.0697 26.7236 15.6035C26.7236 16.1178 26.5739 16.5247 26.2744 16.8242C25.9749 17.1172 25.5583 17.2637 25.0244 17.2637C24.4775 17.2637 24.0544 17.1204 23.7549 16.834C23.4554 16.541 23.3057 16.1309 23.3057 15.6035ZM33.0642 18.219L33.0872 18.15C33.0872 17.9967 32.9569 17.9123 32.6962 17.897C32.3742 17.6977 32.0292 17.3603 31.6612 16.885C31.2932 16.3943 31.0632 16.0187 30.9712 15.758C30.9252 15.6353 30.9022 15.551 30.9022 15.505C30.9022 15.4283 30.9329 15.3747 30.9942 15.344C31.0555 15.298 31.1322 15.2597 31.2242 15.229C31.3162 15.183 31.3852 15.1523 31.4312 15.137C31.7072 14.953 31.9142 14.861 32.0522 14.861C32.2055 14.861 32.3359 14.9607 32.4432 15.16C32.6579 15.5433 33.0029 15.8653 33.4782 16.126C33.9535 16.3713 34.4825 16.494 35.0652 16.494C35.5865 16.494 36.0542 16.402 36.4682 16.218C36.8669 16.034 37.0662 15.7657 37.0662 15.413C37.0662 15.1523 36.9512 14.838 36.7212 14.47C36.6905 14.378 36.6369 14.2937 36.5602 14.217C36.4835 14.1403 36.3915 14.0637 36.2842 13.987C36.0389 13.803 35.7705 13.5653 35.4792 13.274C35.2339 13.182 34.9809 13.0593 34.7202 12.906L34.2372 12.676C33.8539 12.492 33.4245 12.2007 32.9492 11.802C32.4739 11.388 32.1442 11.0047 31.9602 10.652C31.6229 10.33 31.4542 9.83933 31.4542 9.18C31.4542 8.45933 31.6229 7.78467 31.9602 7.156C32.1442 6.742 32.5889 6.10567 33.2942 5.247C33.9995 4.38833 34.5209 3.85167 34.8582 3.637L35.4562 3.062C35.4715 3.00067 35.4945 2.97 35.5252 2.97C35.5559 2.95467 35.5789 2.947 35.5942 2.947C35.6402 2.91633 35.8012 2.84733 36.0772 2.74C36.3532 2.61733 36.6445 2.41033 36.9512 2.119C37.8865 1.659 38.7145 1.337 39.4352 1.153C40.1712 0.953666 40.7845 0.853999 41.2752 0.853999C41.8732 0.884666 42.4252 1.09933 42.9312 1.498C43.4525 1.89667 43.7515 2.35667 43.8282 2.878C43.8589 3.03133 43.8742 3.154 43.8742 3.246C43.8742 3.81333 43.6442 4.44967 43.1842 5.155C42.7242 5.86033 42.2335 6.35867 41.7122 6.65C41.4822 6.75733 41.2599 6.811 41.0452 6.811C40.7845 6.811 40.5699 6.742 40.4012 6.604C40.2479 6.466 40.1789 6.28967 40.1942 6.075C40.1942 5.937 40.2402 5.78367 40.3322 5.615C40.4395 5.431 40.6695 5.13967 41.0222 4.741C41.5435 3.97433 41.8042 3.42233 41.8042 3.085C41.8042 2.855 41.6662 2.717 41.3902 2.671C41.2215 2.625 40.7615 2.694 40.0102 2.878C39.2742 3.04667 38.9062 3.16933 38.9062 3.246C38.9062 3.26133 38.8985 3.292 38.8832 3.338C38.8832 3.36867 38.8602 3.37633 38.8142 3.361C38.7529 3.34567 38.3159 3.59867 37.5032 4.12C36.7059 4.64133 36.2919 4.94033 36.2612 5.017C36.2459 5.09367 36.1845 5.178 36.0772 5.27C35.9852 5.34667 35.8702 5.41567 35.7322 5.477C35.4562 5.64567 35.2032 5.87567 34.9732 6.167C34.7585 6.45833 34.4749 6.91833 34.1222 7.547C33.9382 7.80767 33.7849 8.09133 33.6622 8.398C33.5549 8.70467 33.5012 8.98067 33.5012 9.226C33.5012 9.39467 33.5242 9.54033 33.5702 9.663C33.6315 9.893 33.7925 10.1077 34.0532 10.307C34.3292 10.491 34.8505 10.813 35.6172 11.273C36.3992 11.7177 37.1045 12.193 37.7332 12.699C38.3619 13.1897 38.7452 13.5807 38.8832 13.872C39.1285 14.2247 39.2512 14.6847 39.2512 15.252C39.2512 15.6967 39.1899 16.1183 39.0672 16.517C38.9292 16.8083 38.7529 17.0767 38.5382 17.322C38.3235 17.5827 38.1319 17.7053 37.9632 17.69C37.8099 17.736 37.6795 17.7897 37.5722 17.851C37.4649 17.9277 37.3729 17.9813 37.2962 18.012C37.1122 18.1193 36.6369 18.2267 35.8702 18.334C35.1189 18.4567 34.4902 18.5103 33.9842 18.495L33.0642 18.219ZM40.4499 22.382C40.2966 22.382 40.1816 22.313 40.1049 22.175C40.0896 22.1597 40.0206 22.0677 39.8979 21.899C39.7752 21.7303 39.7139 21.485 39.7139 21.163C39.7139 21.1017 39.7292 20.979 39.7599 20.795C39.9286 20.151 40.0129 19.7063 40.0129 19.461C40.0129 19.3843 40.0282 19.2693 40.0589 19.116C40.0896 18.978 40.1126 18.8477 40.1279 18.725C40.1892 18.6177 40.2429 18.449 40.2889 18.219C40.3502 18.0043 40.3809 17.8127 40.3809 17.644C40.3809 17.5673 40.4039 17.4753 40.4499 17.368C40.5112 17.276 40.5802 17.1993 40.6569 17.138C40.6569 17.046 40.6799 16.908 40.7259 16.724C40.7719 16.5247 40.8026 16.3867 40.8179 16.31C40.8946 15.896 41.1936 14.9147 41.7149 13.366C42.2362 11.8173 42.6809 10.5677 43.0489 9.617C43.2329 9.18767 43.3862 8.789 43.5089 8.421C43.6316 8.053 43.6929 7.79233 43.6929 7.639C43.6929 7.57767 43.7082 7.524 43.7389 7.478C43.7849 7.41667 43.8539 7.34 43.9459 7.248C44.0686 7.12533 44.2296 7.064 44.4289 7.064C44.6896 7.064 44.9426 7.14833 45.1879 7.317C45.2952 7.48567 45.3719 7.63133 45.4179 7.754C45.4639 7.87667 45.4869 8.01467 45.4869 8.168C45.4869 8.214 45.4716 8.35967 45.4409 8.605C45.4409 8.927 45.3489 9.21833 45.1649 9.479C44.9809 9.73967 44.8966 9.86233 44.9119 9.847C45.6632 9.387 46.3609 9.157 47.0049 9.157C47.6949 9.157 48.2469 9.40233 48.6609 9.893C49.0749 10.3683 49.2819 10.9357 49.2819 11.595C49.2819 11.8557 49.1592 12.2467 48.9139 12.768C48.6686 13.274 48.4692 13.596 48.3159 13.734C48.2239 13.734 48.1012 13.895 47.9479 14.217C47.7639 14.4623 47.4112 14.723 46.8899 14.999C46.3839 15.2597 46.0389 15.3593 45.8549 15.298C45.8396 15.298 45.8166 15.321 45.7859 15.367C45.7552 15.3977 45.7399 15.4437 45.7399 15.505C45.7399 15.5663 45.5099 15.6737 45.0499 15.827C44.5899 15.9803 44.1912 16.057 43.8539 16.057C43.6699 16.057 43.5319 16.0493 43.4399 16.034C43.3479 16.0033 43.2559 15.9497 43.1639 15.873C43.0566 15.9803 43.0029 16.08 43.0029 16.172C43.0029 16.3253 42.9262 16.5707 42.7729 16.908C42.6196 17.23 42.4969 17.391 42.4049 17.391C42.3896 17.4063 42.3666 17.437 42.3359 17.483C42.3206 17.529 42.3436 17.5827 42.4049 17.644C42.4049 17.69 42.3972 17.7973 42.3819 17.966C42.3666 18.1347 42.3282 18.265 42.2669 18.357C42.2669 18.495 42.2439 18.679 42.1979 18.909C42.1519 19.1543 42.0982 19.3383 42.0369 19.461C42.0369 19.645 42.0062 19.8213 41.9449 19.99C41.8989 20.174 41.8452 20.266 41.7839 20.266C41.6919 20.2967 41.6459 20.519 41.6459 20.933C41.6306 21.301 41.5079 21.6307 41.2779 21.922C41.0632 22.2133 40.8562 22.359 40.6569 22.359L40.4499 22.382ZM43.6009 14.309C43.8156 14.309 44.2142 14.194 44.7969 13.964C45.3949 13.7187 45.8319 13.481 46.1079 13.251C46.4606 12.9597 46.7289 12.6913 46.9129 12.446C47.0969 12.2007 47.1889 11.9553 47.1889 11.71C47.1889 11.4953 47.1199 11.2883 46.9819 11.089C46.8746 10.9203 46.7136 10.836 46.4989 10.836C45.9929 10.836 45.3336 11.227 44.5209 12.009C44.2449 12.3003 43.9996 12.6683 43.7849 13.113C43.5702 13.5423 43.4629 13.872 43.4629 14.102C43.4629 14.24 43.5089 14.309 43.6009 14.309ZM53.0753 17C52.2013 17 51.496 16.7547 50.9593 16.264C50.4226 15.7733 50.1543 15.0757 50.1543 14.171C50.1543 13.8183 50.1773 13.4273 50.2233 12.998C50.254 12.63 50.3996 12.124 50.6603 11.48C50.9363 10.836 51.3043 10.2073 51.7643 9.594C52.2396 8.98067 52.7916 8.52833 53.4203 8.237C53.7116 8.099 53.957 8.007 54.1563 7.961C54.3556 7.89967 54.5856 7.869 54.8463 7.869C55.475 7.869 55.981 7.984 56.3643 8.214C56.763 8.444 57.039 8.70467 57.1923 8.996C57.361 9.28733 57.4453 9.54033 57.4453 9.755V9.87V9.939C57.4453 10.123 57.338 10.4603 57.1233 10.951C56.9086 11.4417 56.5636 11.9017 56.0883 12.331C55.6283 12.7603 55.0303 12.998 54.2943 13.044C53.9263 13.044 53.566 13.0133 53.2133 12.952C52.876 12.8753 52.6613 12.837 52.5693 12.837C52.3393 12.837 52.1936 12.9213 52.1323 13.09C52.071 13.2587 52.0403 13.5423 52.0403 13.941C52.0863 14.3703 52.2013 14.6693 52.3853 14.838C52.5846 15.0067 52.8683 15.091 53.2363 15.091C53.4203 15.091 53.635 15.0373 53.8803 14.93C54.1256 14.8073 54.417 14.6157 54.7543 14.355C54.9383 14.2017 55.084 14.0943 55.1913 14.033C55.2986 13.9717 55.429 13.941 55.5823 13.941C55.7203 13.941 55.8813 14.033 56.0653 14.217C56.2493 14.401 56.349 14.5773 56.3643 14.746C56.3336 14.93 56.165 15.206 55.8583 15.574C55.5516 15.942 55.153 16.2717 54.6623 16.563C54.1716 16.8543 53.6426 17 53.0753 17ZM53.8803 11.457C54.1716 11.457 54.371 11.4263 54.4783 11.365C54.6316 11.2883 54.8616 11.0967 55.1683 10.79C55.4903 10.468 55.659 10.2457 55.6743 10.123C55.6743 9.96967 55.6053 9.847 55.4673 9.755C55.3446 9.64767 55.1683 9.57867 54.9383 9.548H54.6853C54.486 9.548 54.1946 9.71667 53.8113 10.054C53.4433 10.376 53.1213 10.7517 52.8453 11.181C52.8606 11.2577 52.9756 11.3267 53.1903 11.388C53.405 11.434 53.635 11.457 53.8803 11.457ZM59.9519 16.816C59.4919 16.816 59.1929 16.793 59.0549 16.747C58.9169 16.6857 58.7483 16.563 58.5489 16.379C58.5029 16.2717 58.4033 16.126 58.2499 15.942C58.1119 15.758 57.9969 15.62 57.9049 15.528C57.8589 15.3593 57.8359 15.16 57.8359 14.93C57.8359 14.5313 57.8896 14.0637 57.9969 13.527C58.1196 12.9903 58.2653 12.4997 58.4339 12.055C58.4953 11.9323 58.5413 11.8173 58.5719 11.71C58.6179 11.6027 58.6486 11.5337 58.6639 11.503C58.6639 11.3957 58.8556 11.066 59.2389 10.514C59.6376 9.94667 59.9519 9.55567 60.1819 9.341C60.2893 9.21833 60.4503 9.088 60.6649 8.95C60.8949 8.812 61.0943 8.71233 61.2629 8.651C61.3089 8.63567 61.4929 8.56667 61.8149 8.444C62.1523 8.32133 62.4589 8.26 62.7349 8.26C62.9803 8.26 63.2179 8.31367 63.4479 8.421C63.6933 8.513 63.8926 8.66633 64.0459 8.881C64.4446 9.27967 64.6439 9.801 64.6439 10.445C64.6439 10.5677 64.6286 10.7057 64.5979 10.859C64.5213 11.1657 64.3603 11.4187 64.1149 11.618C63.8849 11.802 63.6396 11.894 63.3789 11.894C63.1183 11.894 62.8959 11.7943 62.7119 11.595C62.6506 11.4417 62.6199 11.342 62.6199 11.296C62.6199 11.25 62.6506 11.1197 62.7119 10.905C62.7733 10.629 62.8039 10.4527 62.8039 10.376C62.8039 10.1767 62.7349 10.077 62.5969 10.077C62.4129 10.077 62.2673 10.123 62.1599 10.215C62.0526 10.307 61.8533 10.5063 61.5619 10.813C61.3626 11.0277 61.1249 11.342 60.8489 11.756C60.5883 12.1547 60.3813 12.538 60.2279 12.906C60.0899 13.32 59.9903 13.619 59.9289 13.803C59.8829 13.9717 59.8599 14.0713 59.8599 14.102C59.8599 14.1633 59.8523 14.2247 59.8369 14.286C59.8216 14.332 59.8139 14.3857 59.8139 14.447C59.8139 14.5543 59.8369 14.6387 59.8829 14.7C59.9289 14.7613 60.0133 14.8227 60.1359 14.884C60.1666 14.8993 60.2203 14.93 60.2969 14.976C60.3736 15.022 60.4503 15.045 60.5269 15.045C60.6189 15.045 60.7493 15.0067 60.9179 14.93C61.0866 14.8533 61.1939 14.8073 61.2399 14.792C61.4393 14.7 61.7229 14.5007 62.0909 14.194L62.6429 13.78C62.7503 13.7033 62.8423 13.642 62.9189 13.596C63.0109 13.5347 63.0799 13.4963 63.1259 13.481C63.1719 13.4503 63.1949 13.4503 63.1949 13.481C63.1949 13.5423 63.2179 13.573 63.2639 13.573C63.3099 13.573 63.3636 13.5423 63.4249 13.481C63.4863 13.389 63.5936 13.343 63.7469 13.343C63.8696 13.343 63.9923 13.3813 64.1149 13.458C64.2529 13.5193 64.3219 13.573 64.3219 13.619L64.2989 13.734C64.2989 13.8107 64.3373 13.8873 64.4139 13.964C64.4139 14.0253 64.3909 14.1097 64.3449 14.217C64.3143 14.309 64.2683 14.3857 64.2069 14.447C64.0536 14.677 63.8773 14.9147 63.6779 15.16C63.4939 15.4053 63.3636 15.574 63.2869 15.666H63.2639C63.1873 15.666 63.0799 15.735 62.9419 15.873C62.7119 16.0877 62.5126 16.195 62.3439 16.195C62.2826 16.2257 62.2136 16.264 62.1369 16.31C62.0603 16.3407 62.0219 16.379 62.0219 16.425C61.7613 16.6857 61.0713 16.816 59.9519 16.816ZM69.965 7.432C69.919 7.478 69.873 7.501 69.827 7.501C69.7657 7.501 69.666 7.455 69.528 7.363C69.3747 7.34767 69.1677 7.21733 68.907 6.972C68.6617 6.72667 68.539 6.56567 68.539 6.489C68.5237 6.305 68.539 6.04433 68.585 5.707C68.631 5.35433 68.7153 5.04 68.838 4.764C68.976 4.488 69.1523 4.34233 69.367 4.327C69.4743 4.34233 69.62 4.38067 69.804 4.442C69.988 4.488 70.195 4.557 70.425 4.649C70.7163 5.23167 70.862 5.73 70.862 6.144C70.862 6.75733 70.563 7.18667 69.965 7.432ZM67.849 16.977C67.481 16.977 67.159 16.7853 66.883 16.402C66.6223 16.0187 66.4613 15.5433 66.4 14.976C66.4613 14.4087 66.5073 13.9947 66.538 13.734C66.7067 12.9827 66.9137 12.101 67.159 11.089C67.4197 10.0617 67.573 9.49433 67.619 9.387C67.6957 9.249 67.8183 9.18 67.987 9.18C68.1557 9.18 68.3397 9.249 68.539 9.387C68.7537 9.50967 68.93 9.686 69.068 9.916C69.1907 10.0847 69.252 10.2763 69.252 10.491C69.252 10.813 69.0987 11.4877 68.792 12.515C68.5773 13.2817 68.4393 13.826 68.378 14.148C68.3167 14.47 68.2937 14.815 68.309 15.183C68.2477 15.873 68.1863 16.3483 68.125 16.609C68.0637 16.8697 67.9717 16.9923 67.849 16.977ZM72.0877 16.586C71.827 16.6473 71.5127 16.5093 71.1447 16.172C70.7767 15.8347 70.562 15.5203 70.5007 15.229C70.47 15.0757 70.4547 14.9453 70.4547 14.838C70.4547 14.24 70.6463 13.5193 71.0297 12.676C71.413 11.8173 71.9267 11.0123 72.5707 10.261C73.23 9.50967 73.9507 8.96533 74.7327 8.628C75.0547 8.45933 75.2617 8.375 75.3537 8.375C75.4457 8.375 75.6527 8.45933 75.9747 8.628C76.2813 8.70467 76.5267 8.789 76.7107 8.881C76.8947 8.973 77.0633 9.11867 77.2167 9.318C77.416 9.71667 77.5617 10.2073 77.6537 10.79C77.7457 11.112 77.7917 11.342 77.7917 11.48C77.7917 11.6027 77.7457 11.71 77.6537 11.802C77.6383 11.8173 77.6077 11.848 77.5617 11.894C77.531 11.94 77.5157 11.9783 77.5157 12.009C77.5157 12.0243 77.531 12.032 77.5617 12.032C77.5617 12.0473 77.554 12.0857 77.5387 12.147C77.5233 12.193 77.4927 12.262 77.4467 12.354C77.2627 12.9367 77.1707 13.389 77.1707 13.711C77.1707 13.8183 77.186 13.9487 77.2167 14.102C77.37 14.5007 77.5617 14.7 77.7917 14.7C78.0063 14.7 78.2517 14.562 78.5277 14.286C78.7577 14.1327 78.9877 14.056 79.2177 14.056C79.3557 14.056 79.4247 14.0943 79.4247 14.171C79.44 14.1863 79.4707 14.2093 79.5167 14.24C79.5627 14.2707 79.6087 14.286 79.6547 14.286C79.716 14.286 79.7467 14.355 79.7467 14.493C79.7467 14.6157 79.716 14.7767 79.6547 14.976C79.6087 15.1753 79.5473 15.3363 79.4707 15.459C79.3633 15.5663 79.279 15.6583 79.2177 15.735C79.1563 15.8117 79.1257 15.873 79.1257 15.919L78.7807 16.241C78.4893 16.4097 78.1443 16.494 77.7457 16.494C77.3317 16.494 77.002 16.4097 76.7567 16.241C76.5113 16.0723 76.2813 15.8653 76.0667 15.62C75.852 15.3593 75.714 15.1293 75.6527 14.93L75.5377 14.7L74.8707 15.137L74.2957 15.735C74.173 15.8883 74.0657 15.965 73.9737 15.965H73.7437C73.7437 16.0723 73.529 16.2027 73.0997 16.356C72.6703 16.5093 72.333 16.586 72.0877 16.586ZM72.5707 14.654C72.7393 14.654 73.0843 14.4623 73.6057 14.079C74.1423 13.6803 74.5027 13.366 74.6867 13.136C74.748 13.0593 74.8247 12.952 74.9167 12.814C75.024 12.6607 75.116 12.5457 75.1927 12.469C75.438 12.1777 75.6143 11.9477 75.7217 11.779C75.8443 11.595 75.9057 11.4187 75.9057 11.25C75.9057 11.1273 75.852 10.9587 75.7447 10.744C75.6833 10.56 75.5913 10.468 75.4687 10.468C75.4073 10.468 75.231 10.5217 74.9397 10.629C74.6483 10.7977 74.3033 11.1427 73.9047 11.664C73.5213 12.1853 73.184 12.7143 72.8927 13.251C72.6013 13.7877 72.4557 14.1787 72.4557 14.424C72.4557 14.47 72.471 14.516 72.5017 14.562C72.5323 14.608 72.5553 14.6387 72.5707 14.654ZM80.5274 17.69C80.2974 17.6133 80.1211 17.4753 79.9984 17.276C79.8911 17.0767 79.8374 16.7853 79.8374 16.402C79.8374 15.7733 79.8987 15.16 80.0214 14.562L80.0444 14.378C80.0597 14.286 80.0827 14.1403 80.1134 13.941C80.1441 13.7263 80.1671 13.665 80.1824 13.757L80.3204 13.136C80.4277 12.7067 80.5274 12.308 80.6194 11.94C80.7267 11.572 80.8111 11.3037 80.8724 11.135L81.1254 10.33C81.5854 8.84267 82.0147 7.83833 82.4134 7.317C82.4287 7.25567 82.4517 7.202 82.4824 7.156C82.5131 7.09467 82.5361 7.03333 82.5514 6.972C82.5514 6.72667 82.5974 6.535 82.6894 6.397C82.8274 6.167 82.9424 5.96 83.0344 5.776L83.1264 5.523L83.7704 4.212C83.8164 4.05867 83.9084 3.89 84.0464 3.706C84.1997 3.522 84.3531 3.39933 84.5064 3.338L84.4834 3.315C84.5601 3.19233 84.6981 3.085 84.8974 2.993C85.1121 2.901 85.2961 2.855 85.4494 2.855C85.6487 2.855 85.8097 2.91633 85.9324 3.039C86.0551 3.16167 86.1164 3.33033 86.1164 3.545V3.775C86.1164 3.913 86.1011 4.02033 86.0704 4.097C86.0551 4.17367 86.0091 4.26567 85.9324 4.373H85.9554C85.9707 4.38833 85.9554 4.442 85.9094 4.534C85.8787 4.61067 85.8481 4.68733 85.8174 4.764C85.7101 5.04 85.6334 5.19333 85.5874 5.224C85.4801 5.362 85.1274 6.01367 84.5294 7.179C83.9314 8.329 83.5481 9.12633 83.3794 9.571L83.2874 9.916L83.2414 10.054C83.0727 10.422 82.9807 10.6213 82.9654 10.652L82.5974 12.078L82.5054 12.561L82.2984 13.09L82.1604 13.527C82.1297 13.6037 82.0991 13.7033 82.0684 13.826C82.0531 13.9487 82.0301 14.0253 81.9994 14.056L81.9764 14.171C81.9611 14.2323 81.9074 14.4087 81.8154 14.7C81.6774 15.1293 81.5777 15.4897 81.5164 15.781C81.4551 16.057 81.4167 16.356 81.4014 16.678L81.3784 16.77C81.3324 17.1073 81.2327 17.3603 81.0794 17.529C80.9414 17.6977 80.7574 17.7513 80.5274 17.69ZM89.1276 17.759C88.9589 17.667 88.8363 17.5827 88.7596 17.506C88.6983 17.4293 88.6676 17.3297 88.6676 17.207C88.6676 17.0537 88.7289 16.839 88.8516 16.563C88.9896 16.2717 89.2196 15.8193 89.5416 15.206C89.6336 15.0067 89.8099 14.654 90.0706 14.148C90.7299 12.8907 91.0596 11.963 91.0596 11.365C91.0443 11.3343 91.0366 11.2883 91.0366 11.227C91.0366 11.0737 91.1593 10.9357 91.4046 10.813C91.4506 10.767 91.6116 10.6367 91.8876 10.422C92.1789 10.2073 92.4089 9.962 92.5776 9.686C92.7769 9.226 93.0299 8.72 93.3366 8.168C93.6433 7.60067 94.1723 6.68067 94.9236 5.408C95.6596 4.05867 96.4416 2.83967 97.2696 1.751C97.4229 1.53633 97.5916 1.36767 97.7756 1.245C97.9749 1.12233 98.1436 1.061 98.2816 1.061C98.7569 1.061 99.2399 1.245 99.7306 1.613C100.237 1.981 100.566 2.349 100.72 2.717C100.781 2.82433 100.812 3.05433 100.812 3.407C100.812 3.88233 100.758 4.68733 100.651 5.822C100.62 6.02133 100.589 6.33567 100.559 6.765C100.513 7.455 100.444 8.191 100.352 8.973C100.183 10.6903 100.06 12.032 99.9836 12.998C99.9069 13.964 99.8686 14.8687 99.8686 15.712C99.8686 16.1413 99.8763 16.4557 99.8916 16.655V16.816L99.8686 17.345C99.7766 17.437 99.5926 17.483 99.3166 17.483C99.0099 17.483 98.7033 17.4293 98.3966 17.322C98.0899 17.23 97.9213 17.115 97.8906 16.977C97.8753 16.9617 97.8523 16.9463 97.8216 16.931C97.7909 16.9157 97.7756 16.8467 97.7756 16.724L97.7986 16.218L97.8676 14.93L97.9826 11.411L97.6836 11.434C97.3769 11.434 96.7253 11.4953 95.7286 11.618C94.7473 11.7407 94.1263 11.8403 93.8656 11.917C93.7276 11.917 93.5589 12.009 93.3596 12.193C93.1603 12.377 92.9839 12.6147 92.8306 12.906C92.7846 13.0593 92.6773 13.2817 92.5086 13.573C92.3399 13.849 92.2556 14.01 92.2556 14.056C92.1636 14.1173 92.0793 14.2017 92.0026 14.309C91.9413 14.401 91.9029 14.4623 91.8876 14.493C91.8876 14.6617 91.7343 15.0987 91.4276 15.804C91.1363 16.494 90.8449 17.0613 90.5536 17.506L89.9326 18.38L89.1276 17.759ZM94.6246 9.847C94.7319 9.83167 94.9466 9.801 95.2686 9.755C95.5906 9.69367 95.8743 9.65533 96.1196 9.64C96.8556 9.456 97.3616 9.364 97.6376 9.364C97.7909 9.364 97.8983 9.37933 97.9596 9.41C98.0056 9.47133 98.0516 9.51733 98.0976 9.548C98.1589 9.56333 98.1973 9.571 98.2126 9.571C98.2433 9.44833 98.3659 8.61267 98.5806 7.064C98.7953 5.51533 98.9026 4.56467 98.9026 4.212C98.9026 3.96667 98.8949 3.75967 98.8796 3.591C98.8643 3.407 98.8489 3.292 98.8336 3.246C98.6956 3.246 98.3813 3.614 97.8906 4.35C97.3999 5.07067 96.9246 5.891 96.4646 6.811C96.1119 7.43967 95.8666 7.754 95.7286 7.754C95.6213 7.86133 95.3913 8.22167 95.0386 8.835C94.6859 9.44833 94.5479 9.78567 94.6246 9.847ZM101.984 16.379C101.769 16.2103 101.601 16.0493 101.478 15.896C101.355 15.7427 101.317 15.528 101.363 15.252C101.409 14.7307 101.524 14.125 101.708 13.435L101.823 12.975C101.869 12.561 102.107 11.7483 102.536 10.537C102.981 9.31033 103.349 8.48233 103.64 8.053C103.793 7.89967 104.054 7.823 104.422 7.823C104.729 7.823 104.943 7.88433 105.066 8.007C105.189 8.099 105.25 8.25233 105.25 8.467C105.25 8.81967 105.028 9.44067 104.583 10.33L104.353 10.813C104.246 11.0123 104.154 11.1963 104.077 11.365C104.016 11.5337 104.023 11.6103 104.1 11.595C104.269 11.3037 104.675 10.905 105.319 10.399C105.978 9.893 106.431 9.57867 106.676 9.456C106.783 9.39467 106.921 9.33333 107.09 9.272C107.259 9.21067 107.374 9.16467 107.435 9.134C107.711 8.996 108.025 8.927 108.378 8.927C108.623 8.927 108.83 8.96533 108.999 9.042C109.183 9.10333 109.306 9.203 109.367 9.341C109.382 9.44833 109.421 9.53267 109.482 9.594C109.559 9.65533 109.612 9.69367 109.643 9.709C109.689 9.709 109.72 9.732 109.735 9.778C109.75 9.80867 109.758 9.83167 109.758 9.847C109.758 9.96967 109.651 10.1307 109.436 10.33C109.221 10.514 108.999 10.6137 108.769 10.629C108.6 10.6443 108.424 10.6827 108.24 10.744C108.056 10.8053 107.872 10.882 107.688 10.974L107.09 11.319C106.569 11.5797 106.124 11.8403 105.756 12.101C105.403 12.3463 105.043 12.6683 104.675 13.067C104.598 13.1437 104.483 13.251 104.33 13.389C104.192 13.527 104.069 13.688 103.962 13.872C103.855 13.9793 103.74 14.263 103.617 14.723C103.51 15.1677 103.456 15.4437 103.456 15.551C103.441 15.597 103.41 15.689 103.364 15.827C103.318 15.965 103.249 16.0877 103.157 16.195C103.019 16.3637 102.904 16.4863 102.812 16.563C102.72 16.6397 102.62 16.678 102.513 16.678C102.36 16.678 102.183 16.5783 101.984 16.379ZM112.825 17.138C112.488 17.046 112.051 16.7623 111.514 16.287C111.253 15.9497 111.1 15.6507 111.054 15.39C111.008 15.114 110.985 14.5773 110.985 13.78C110.985 13.412 111.169 12.492 111.537 11.02C111.552 10.9587 111.606 10.7517 111.698 10.399C111.744 10.2303 111.683 10.123 111.514 10.077C111.345 10.031 111.108 10.008 110.801 10.008C110.54 10.008 110.387 9.99267 110.341 9.962C110.295 9.94667 110.264 9.87767 110.249 9.755C110.249 9.63233 110.249 9.548 110.249 9.502C110.249 9.456 110.211 9.41 110.134 9.364C110.073 9.318 110.027 9.272 109.996 9.226C109.95 9.16467 109.988 9.04967 110.111 8.881C110.234 8.71233 110.372 8.61267 110.525 8.582C110.617 8.56667 110.816 8.54367 111.123 8.513C111.43 8.48233 111.721 8.421 111.997 8.329C112.288 8.237 112.503 8.10667 112.641 7.938C112.84 7.41667 113.07 6.86467 113.331 6.282C113.607 5.69933 113.799 5.35433 113.906 5.247C114.151 5.12433 114.374 5.063 114.573 5.063C114.91 5.063 115.171 5.201 115.355 5.477C115.401 5.53833 115.455 5.59967 115.516 5.661C115.577 5.72233 115.608 5.79133 115.608 5.868C115.608 5.97533 115.554 6.144 115.447 6.374C115.355 6.604 115.163 6.97967 114.872 7.501L114.573 8.076C114.619 8.09133 114.726 8.099 114.895 8.099C115.064 8.099 115.202 8.09133 115.309 8.076C115.646 8.01467 115.907 7.984 116.091 7.984C116.229 7.984 116.329 7.99167 116.39 8.007C117.034 8.007 117.387 8.35967 117.448 9.065C117.479 9.249 117.41 9.40233 117.241 9.525C117.088 9.63233 116.812 9.686 116.413 9.686C114.834 9.74733 114.036 9.81633 114.021 9.893C113.944 9.939 113.822 10.1767 113.653 10.606C113.484 11.0353 113.346 11.4417 113.239 11.825C113.055 12.6223 112.963 13.3737 112.963 14.079C112.963 14.7537 113.063 15.1907 113.262 15.39C113.323 15.4513 113.408 15.482 113.515 15.482C113.791 15.482 114.182 15.275 114.688 14.861C114.857 14.7077 115.041 14.631 115.24 14.631C115.409 14.631 115.539 14.6923 115.631 14.815C115.738 14.9377 115.792 15.0987 115.792 15.298C115.792 15.528 115.715 15.7503 115.562 15.965C115.332 16.3177 114.987 16.609 114.527 16.839C114.067 17.069 113.63 17.184 113.216 17.184C113.032 17.184 112.902 17.1687 112.825 17.138Z" fill="#963484"/>
</svg>
