<svg id="Layer_1" data-name="Layer 1" xmlns="http://www.w3.org/2000/svg" viewBox="0 0 3000 2000"><defs><style>.cls-1{fill:#fff;}.cls-2{fill:#ebf2f9;}.cls-3{fill:#dceaf9;}.cls-4{fill:#d5e7f7;}.cls-5{fill:#c4d9ed;}.cls-6{fill:#adc9e0;}.cls-7{fill:#99d68a;}.cls-8{fill:#3bc14a;}.cls-9{fill:#7a3909;}.cls-10{fill:#2b478b;}.cls-11{fill:#406dbf;}.cls-12{fill:#233862;}.cls-13{fill:#ffb27d;}.cls-14{fill:#369;}.cls-15{fill:#0f2949;}.cls-16{fill:#163560;}.cls-17{fill:#c8d9e8;}.cls-18{fill:#963484;}.cls-19{fill:#e8945b;}.cls-20{fill:#b27f5d;}.cls-21{fill:#c6916d;}.cls-22{fill:#916140;}.cls-23{fill:#e5bd9e;}.cls-24{fill:#e9f3fe;}.cls-25{fill:#f4a269;}.cls-26{fill:#b5453c;}.cls-27{fill:#a06b47;}.cls-28{fill:#ce9a78;}.cls-29{fill:#d6a685;}.cls-30{fill:#7c4f31;}.cls-31{fill:#2e3552;}.cls-32{fill:#7ec483;}.cls-33{fill:none;}.cls-34{isolation:isolate;font-size:26px;font-family:OpenSans, Open Sans;}</style></defs><title>header</title><rect class="cls-1" width="3000" height="2000"/><path class="cls-2" d="M509.5,793.7c411.2,71.4,106.7-704.3,666.8-369.4,222.8,133.2,606.8-66.9,914,21.2,282.1,80.9,212.6,346.4,185.3,433.3-55.1,175.5,219.5,105.5,378.7,180.9,249.7,118.3,30.7,595-205.2,597s-1968.8-4-1968.8-4-102.9-67-157.6-205C210.6,1164.8,147.4,730.9,509.5,793.7Z"/><rect class="cls-3" x="674.3" y="1468.9" width="88.6" height="182.6"/><polygon class="cls-4" points="1979.6 955.6 1979.6 875.8 1955.4 875.8 1955.4 738.6 1825.6 738.6 1825.6 875.8 1704.1 875.8 1704.1 687.7 1570.1 637 1570.1 797.3 1539.6 797.3 1539.6 583.8 1405.6 628.2 1405.6 948.9 1236.1 948.9 1236.1 1138.4 1172.8 1138.4 1172.8 1186.1 1027.4 1186.1 1027.4 1103.9 943.9 1103.9 943.9 880.6 840.8 880.6 840.8 1292.8 737.6 1292.8 737.6 1651.5 840.8 1651.5 929.2 1651.5 943.9 1651.5 1027.4 1651.5 1074.6 1651.5 1150.2 1651.5 1172.8 1651.5 1236.1 1651.5 1295.6 1651.5 1405.6 1651.5 1439.3 1651.5 1506.3 1651.5 1539.6 1651.5 1570.1 1651.5 1640.3 1651.5 1688 1651.5 1704.1 1651.5 1825.6 1651.5 1953.3 1651.5 1955.4 1651.5 1979.6 1651.5 2083.1 1651.5 2083.1 955.6 1979.6 955.6"/><rect class="cls-5" x="1425.6" y="644.4" width="90.4" height="33.1"/><rect class="cls-5" x="1425.6" y="706.6" width="90.4" height="33.1"/><rect class="cls-5" x="1425.6" y="762.6" width="90.4" height="33.1"/><rect class="cls-5" x="840.8" y="1031" width="105.1" height="51.1"/><rect class="cls-5" x="840.8" y="1187.9" width="104.1" height="51.1"/><rect class="cls-5" x="840.8" y="1265" width="104.1" height="51.1"/><rect class="cls-5" x="1587.8" y="762.6" width="95.1" height="33.1"/><rect class="cls-5" x="1587.8" y="707.1" width="95.1" height="33.1"/><rect class="cls-5" x="1423.3" y="816.8" width="259.5" height="33.1"/><rect class="cls-5" x="1423.3" y="866.6" width="259.5" height="33.1"/><rect class="cls-5" x="1423.3" y="916" width="259.5" height="31.8"/><rect class="cls-5" x="840.8" y="1110.7" width="104.1" height="51.1"/><rect class="cls-5" x="1262.1" y="980" width="22.7" height="32"/><rect class="cls-5" x="1304.6" y="980" width="22.7" height="32"/><rect class="cls-5" x="1346.1" y="980" width="22.7" height="32"/><rect class="cls-5" x="1385.5" y="980" width="22.7" height="32"/><rect class="cls-5" x="1425.6" y="980" width="22.7" height="32"/><rect class="cls-5" x="1466.2" y="980" width="22.7" height="32"/><rect class="cls-5" x="1508.7" y="980" width="22.7" height="32"/><rect class="cls-5" x="1550.2" y="980" width="22.7" height="32"/><rect class="cls-5" x="1589.6" y="980" width="22.7" height="32"/><rect class="cls-5" x="1629.7" y="980" width="22.7" height="32"/><rect class="cls-5" x="1671.5" y="980" width="22.7" height="32"/><rect class="cls-5" x="1714" y="980" width="22.7" height="32"/><rect class="cls-5" x="1755.5" y="980" width="22.7" height="32"/><rect class="cls-5" x="1794.9" y="980" width="22.7" height="32"/><rect class="cls-5" x="1835" y="980" width="22.7" height="32"/><rect class="cls-5" x="1875.6" y="980" width="22.7" height="32"/><rect class="cls-5" x="1918.1" y="980" width="22.7" height="32"/><rect class="cls-5" x="1959.6" y="980" width="22.7" height="32"/><rect class="cls-5" x="1999" y="980" width="22.7" height="32"/><rect class="cls-5" x="2039.1" y="980" width="22.7" height="32"/><rect class="cls-5" x="1262.1" y="1036.5" width="22.7" height="32"/><rect class="cls-5" x="1304.6" y="1036.5" width="22.7" height="32"/><rect class="cls-5" x="1346.1" y="1036.5" width="22.7" height="32"/><rect class="cls-5" x="1385.5" y="1036.5" width="22.7" height="32"/><rect class="cls-5" x="1425.6" y="1036.5" width="22.7" height="32"/><rect class="cls-5" x="1466.2" y="1036.5" width="22.7" height="32"/><rect class="cls-5" x="1508.7" y="1036.5" width="22.7" height="32"/><rect class="cls-5" x="1550.2" y="1036.5" width="22.7" height="32"/><rect class="cls-5" x="1589.6" y="1036.5" width="22.7" height="32"/><rect class="cls-5" x="1629.7" y="1036.5" width="22.7" height="32"/><rect class="cls-5" x="1671.5" y="1036.5" width="22.7" height="32"/><rect class="cls-5" x="1714" y="1036.5" width="22.7" height="32"/><rect class="cls-5" x="1755.5" y="1036.5" width="22.7" height="32"/><rect class="cls-5" x="1794.9" y="1036.5" width="22.7" height="32"/><rect class="cls-5" x="1835" y="1036.5" width="22.7" height="32"/><rect class="cls-5" x="1875.6" y="1036.5" width="22.7" height="32"/><rect class="cls-5" x="1918.1" y="1036.5" width="22.7" height="32"/><rect class="cls-5" x="1959.6" y="1036.5" width="22.7" height="32"/><rect class="cls-5" x="1999" y="1036.5" width="22.7" height="32"/><rect class="cls-5" x="2039.1" y="1036.5" width="22.7" height="32"/><rect class="cls-5" x="1262.1" y="1092.1" width="22.7" height="32"/><rect class="cls-5" x="1304.6" y="1092.1" width="22.7" height="32"/><rect class="cls-5" x="1346.1" y="1092.1" width="22.7" height="32"/><rect class="cls-5" x="1385.5" y="1092.1" width="22.7" height="32"/><rect class="cls-5" x="1425.6" y="1092.1" width="22.7" height="32"/><rect class="cls-5" x="1466.2" y="1092.1" width="22.7" height="32"/><rect class="cls-5" x="1508.7" y="1092.1" width="22.7" height="32"/><rect class="cls-5" x="1550.2" y="1092.1" width="22.7" height="32"/><rect class="cls-5" x="1589.6" y="1092.1" width="22.7" height="32"/><rect class="cls-5" x="1629.7" y="1092.1" width="22.7" height="32"/><rect class="cls-5" x="1671.5" y="1092.1" width="22.7" height="32"/><rect class="cls-5" x="1714" y="1092.1" width="22.7" height="32"/><rect class="cls-5" x="1755.5" y="1092.1" width="22.7" height="32"/><rect class="cls-5" x="1794.9" y="1092.1" width="22.7" height="32"/><rect class="cls-5" x="1835" y="1092.1" width="22.7" height="32"/><rect class="cls-5" x="1875.6" y="1092.1" width="22.7" height="32"/><rect class="cls-5" x="1918.1" y="1092.1" width="22.7" height="32"/><rect class="cls-5" x="1959.6" y="1092.1" width="22.7" height="32"/><rect class="cls-5" x="1999" y="1092.1" width="22.7" height="32"/><rect class="cls-5" x="2039.1" y="1092.1" width="22.7" height="32"/><rect class="cls-5" x="1262.1" y="1151.2" width="22.7" height="32"/><rect class="cls-5" x="1304.6" y="1151.2" width="22.7" height="32"/><rect class="cls-5" x="1346.1" y="1151.2" width="22.7" height="32"/><rect class="cls-5" x="1385.5" y="1151.2" width="22.7" height="32"/><rect class="cls-5" x="1425.6" y="1151.2" width="22.7" height="32"/><rect class="cls-5" x="1466.2" y="1151.2" width="22.7" height="32"/><rect class="cls-5" x="1508.7" y="1151.2" width="22.7" height="32"/><rect class="cls-5" x="1550.2" y="1151.2" width="22.7" height="32"/><rect class="cls-5" x="1589.6" y="1151.2" width="22.7" height="32"/><rect class="cls-5" x="1629.7" y="1151.2" width="22.7" height="32"/><rect class="cls-5" x="1671.5" y="1151.2" width="22.7" height="32"/><rect class="cls-5" x="1714" y="1151.2" width="22.7" height="32"/><rect class="cls-5" x="1755.5" y="1151.2" width="22.7" height="32"/><rect class="cls-5" x="1794.9" y="1151.2" width="22.7" height="32"/><rect class="cls-5" x="1835" y="1151.2" width="22.7" height="32"/><rect class="cls-5" x="1875.6" y="1151.2" width="22.7" height="32"/><rect class="cls-5" x="1918.1" y="1151.2" width="22.7" height="32"/><rect class="cls-5" x="1959.6" y="1151.2" width="22.7" height="32"/><rect class="cls-5" x="1999" y="1151.2" width="22.7" height="32"/><rect class="cls-5" x="2039.1" y="1151.2" width="22.7" height="32"/><rect class="cls-5" x="1262.1" y="1207.7" width="22.7" height="32"/><rect class="cls-5" x="1304.6" y="1207.7" width="22.7" height="32"/><rect class="cls-5" x="1346.1" y="1207.7" width="22.7" height="32"/><rect class="cls-5" x="1385.5" y="1207.7" width="22.7" height="32"/><rect class="cls-5" x="1425.6" y="1207.7" width="22.7" height="32"/><rect class="cls-5" x="1466.2" y="1207.7" width="22.7" height="32"/><rect class="cls-5" x="1508.7" y="1207.7" width="22.7" height="32"/><rect class="cls-5" x="1550.2" y="1207.7" width="22.7" height="32"/><rect class="cls-5" x="1589.6" y="1207.7" width="22.7" height="32"/><rect class="cls-5" x="1629.7" y="1207.7" width="22.7" height="32"/><rect class="cls-5" x="1671.5" y="1207.7" width="22.7" height="32"/><rect class="cls-5" x="1714" y="1207.7" width="22.7" height="32"/><rect class="cls-5" x="1755.5" y="1207.7" width="22.7" height="32"/><rect class="cls-5" x="1794.9" y="1207.7" width="22.7" height="32"/><rect class="cls-5" x="1835" y="1207.7" width="22.7" height="32"/><rect class="cls-5" x="1875.6" y="1207.7" width="22.7" height="32"/><rect class="cls-5" x="1918.1" y="1207.7" width="22.7" height="32"/><rect class="cls-5" x="1999" y="1207.7" width="22.7" height="32"/><rect class="cls-5" x="1959.6" y="1207.7" width="22.7" height="32"/><rect class="cls-5" x="2039.1" y="1207.7" width="22.7" height="32"/><rect class="cls-5" x="1262.1" y="1263.3" width="22.7" height="32"/><rect class="cls-5" x="1304.6" y="1263.3" width="22.7" height="32"/><rect class="cls-5" x="1346.1" y="1263.3" width="22.7" height="32"/><rect class="cls-5" x="1385.5" y="1263.3" width="22.7" height="32"/><rect class="cls-5" x="1425.6" y="1263.3" width="22.7" height="32"/><rect class="cls-5" x="1466.2" y="1263.3" width="22.7" height="32"/><rect class="cls-5" x="1508.7" y="1263.3" width="22.7" height="32"/><rect class="cls-5" x="1550.2" y="1263.3" width="22.7" height="32"/><rect class="cls-5" x="1589.6" y="1263.3" width="22.7" height="32"/><rect class="cls-5" x="1629.7" y="1263.3" width="22.7" height="32"/><rect class="cls-5" x="1671.5" y="1263.3" width="22.7" height="32"/><rect class="cls-5" x="1714" y="1263.3" width="22.7" height="32"/><rect class="cls-5" x="1755.5" y="1263.3" width="22.7" height="32"/><rect class="cls-5" x="1794.9" y="1263.3" width="22.7" height="32"/><rect class="cls-5" x="1835" y="1263.3" width="22.7" height="32"/><rect class="cls-5" x="1875.6" y="1263.3" width="22.7" height="32"/><rect class="cls-5" x="1918.1" y="1263.3" width="22.7" height="32"/><rect class="cls-5" x="1999" y="1263.3" width="22.7" height="32"/><rect class="cls-5" x="2039.1" y="1263.3" width="22.7" height="32"/><rect class="cls-5" x="2252.2" y="1200" width="50.5" height="341.9"/><rect class="cls-6" x="2198" y="1407.9" width="54.2" height="237.5"/><polygon class="cls-5" points="1064.3 1103.8 1064.3 1037.2 1067.1 1037.2 1067.1 1103.8 1104.6 1103.8 1104.6 1185.9 1027.4 1185.9 1027.4 1103.8 1064.3 1103.8"/><polygon class="cls-5" points="840.8 931.8 840.8 880.7 862.5 880.7 862.5 858.5 865.2 858.5 865.2 880.7 944.4 880.7 945.8 880.7 960.8 880.7 960.8 858.5 963.5 858.5 963.5 880.7 982.7 880.7 982.7 1104 944.4 1104 944.4 1007.8 840.8 1007.8 840.8 956.7 944.4 956.7 944.4 931.8 840.8 931.8"/><polygon class="cls-4" points="1962.5 1249.8 1962.5 1538 2252.2 1538 2252.2 1200 1962.5 1249.8"/><rect class="cls-4" x="1962.5" y="1408.1" width="361.5" height="243.1"/><rect class="cls-5" x="1962.5" y="1263.1" width="361.5" height="79"/><rect class="cls-5" x="1987.1" y="1472.9" width="18.6" height="26.2"/><rect class="cls-5" x="2021.8" y="1472.9" width="18.6" height="26.2"/><rect class="cls-5" x="2055.7" y="1472.9" width="18.6" height="26.2"/><rect class="cls-5" x="2087.9" y="1472.9" width="18.6" height="26.2"/><rect class="cls-5" x="2120.7" y="1472.9" width="18.6" height="26.2"/><rect class="cls-5" x="2153.9" y="1472.9" width="18.6" height="26.2"/><rect class="cls-5" x="2188.6" y="1472.9" width="18.6" height="26.2"/><rect class="cls-5" x="2222.5" y="1472.9" width="18.6" height="26.2"/><rect class="cls-5" x="2254.7" y="1472.9" width="18.6" height="26.2"/><rect class="cls-5" x="2287.5" y="1472.9" width="18.6" height="26.2"/><rect class="cls-5" x="1987.1" y="1519.1" width="18.6" height="26.2"/><rect class="cls-5" x="2021.8" y="1519.1" width="18.6" height="26.2"/><rect class="cls-5" x="2055.7" y="1519.1" width="18.6" height="26.2"/><rect class="cls-5" x="2087.9" y="1519.1" width="18.6" height="26.2"/><rect class="cls-5" x="2120.7" y="1519.1" width="18.6" height="26.2"/><rect class="cls-5" x="2153.9" y="1519.1" width="18.6" height="26.2"/><rect class="cls-5" x="2188.6" y="1519.1" width="18.6" height="26.2"/><rect class="cls-5" x="2222.5" y="1519.1" width="18.6" height="26.2"/><rect class="cls-5" x="2254.7" y="1519.1" width="18.6" height="26.2"/><rect class="cls-5" x="2287.5" y="1519.1" width="18.6" height="26.2"/><rect class="cls-5" x="1987.1" y="1379.9" width="18.6" height="26.2"/><rect class="cls-5" x="2021.8" y="1379.9" width="18.6" height="26.2"/><rect class="cls-5" x="2055.7" y="1379.9" width="18.6" height="26.2"/><rect class="cls-5" x="2087.9" y="1379.9" width="18.6" height="26.2"/><rect class="cls-5" x="2120.7" y="1379.9" width="18.6" height="26.2"/><rect class="cls-5" x="2153.9" y="1379.9" width="18.6" height="26.2"/><rect class="cls-5" x="2188.6" y="1379.9" width="18.6" height="26.2"/><rect class="cls-5" x="2222.5" y="1379.9" width="18.6" height="26.2"/><rect class="cls-5" x="1987.1" y="1426" width="18.6" height="26.2"/><rect class="cls-5" x="2021.8" y="1426" width="18.6" height="26.2"/><rect class="cls-5" x="2055.7" y="1426" width="18.6" height="26.2"/><rect class="cls-5" x="2087.9" y="1426" width="18.6" height="26.2"/><rect class="cls-5" x="2120.7" y="1426" width="18.6" height="26.2"/><rect class="cls-5" x="2153.9" y="1426" width="18.6" height="26.2"/><rect class="cls-5" x="2188.6" y="1426" width="18.6" height="26.2"/><rect class="cls-5" x="2222.5" y="1426" width="18.6" height="26.2"/><rect class="cls-5" x="2254.7" y="1426" width="18.6" height="26.2"/><rect class="cls-5" x="2287.5" y="1426" width="18.6" height="26.2"/><rect class="cls-5" x="1987.1" y="1564.5" width="18.6" height="26.2"/><rect class="cls-5" x="2021.8" y="1564.5" width="18.6" height="26.2"/><rect class="cls-5" x="2055.7" y="1564.5" width="18.6" height="26.2"/><rect class="cls-5" x="2087.9" y="1564.5" width="18.6" height="26.2"/><rect class="cls-5" x="2120.7" y="1564.5" width="18.6" height="26.2"/><rect class="cls-5" x="2153.9" y="1564.5" width="18.6" height="26.2"/><rect class="cls-5" x="2188.6" y="1564.5" width="18.6" height="26.2"/><rect class="cls-5" x="2222.5" y="1564.5" width="18.6" height="26.2"/><rect class="cls-5" x="2254.7" y="1564.5" width="18.6" height="26.2"/><rect class="cls-5" x="2287.5" y="1564.5" width="18.6" height="26.2"/><rect class="cls-4" x="2227.4" y="1145.8" width="5.4" height="68.5"/><rect class="cls-4" x="1990" y="1285.3" width="15.6" height="27"/><rect class="cls-4" x="2144.9" y="1285.3" width="15.6" height="27"/><rect class="cls-4" x="2268.1" y="1285.3" width="15.6" height="27"/><rect class="cls-5" x="999.8" y="1345.8" width="520.2" height="304.3"/><rect class="cls-4" x="1471.9" y="1377" width="27.7" height="42.3"/><rect class="cls-4" x="1423" y="1377" width="27.7" height="42.3"/><rect class="cls-4" x="1373.8" y="1377" width="27.7" height="42.3"/><rect class="cls-4" x="1324.9" y="1377" width="27.7" height="42.3"/><rect class="cls-4" x="1274.5" y="1377" width="27.7" height="42.3"/><rect class="cls-4" x="1225.6" y="1377" width="27.7" height="42.3"/><rect class="cls-4" x="1176.3" y="1377" width="27.7" height="42.3"/><rect class="cls-4" x="1127.4" y="1377" width="27.7" height="42.3"/><rect class="cls-4" x="1076.1" y="1377" width="27.7" height="42.3"/><rect class="cls-4" x="1027.2" y="1377" width="27.7" height="42.3"/><rect class="cls-4" x="1471.9" y="1439.7" width="27.7" height="42.3"/><rect class="cls-4" x="1423" y="1439.7" width="27.7" height="42.3"/><rect class="cls-4" x="1373.8" y="1439.7" width="27.7" height="42.3"/><rect class="cls-4" x="1324.9" y="1439.7" width="27.7" height="42.3"/><rect class="cls-4" x="1274.5" y="1439.7" width="27.7" height="42.3"/><rect class="cls-4" x="1225.6" y="1439.7" width="27.7" height="42.3"/><rect class="cls-4" x="1176.3" y="1439.7" width="27.7" height="42.3"/><rect class="cls-4" x="1127.4" y="1439.7" width="27.7" height="42.3"/><rect class="cls-4" x="1076.1" y="1439.7" width="27.7" height="42.3"/><rect class="cls-4" x="1027.2" y="1439.7" width="27.7" height="42.3"/><rect class="cls-4" x="1471.9" y="1506.9" width="27.7" height="42.3"/><rect class="cls-4" x="1423" y="1506.9" width="27.7" height="42.3"/><rect class="cls-4" x="1373.8" y="1506.9" width="27.7" height="42.3"/><rect class="cls-4" x="1324.9" y="1506.9" width="27.7" height="42.3"/><rect class="cls-4" x="1274.5" y="1506.9" width="27.7" height="42.3"/><rect class="cls-4" x="1225.6" y="1506.9" width="27.7" height="42.3"/><rect class="cls-4" x="1176.3" y="1506.9" width="27.7" height="42.3"/><rect class="cls-4" x="1127.4" y="1506.9" width="27.7" height="42.3"/><rect class="cls-4" x="1076.1" y="1506.9" width="27.7" height="42.3"/><rect class="cls-4" x="1027.2" y="1506.9" width="27.7" height="42.3"/><rect class="cls-4" x="1471.9" y="1569.6" width="27.7" height="42.3"/><rect class="cls-4" x="1423" y="1569.6" width="27.7" height="42.3"/><rect class="cls-4" x="1373.8" y="1569.6" width="27.7" height="42.3"/><rect class="cls-4" x="1324.9" y="1569.6" width="27.7" height="42.3"/><rect class="cls-4" x="1274.5" y="1569.6" width="27.7" height="42.3"/><rect class="cls-4" x="1225.6" y="1569.6" width="27.7" height="42.3"/><rect class="cls-4" x="1176.3" y="1569.6" width="27.7" height="42.3"/><rect class="cls-4" x="1127.4" y="1569.6" width="27.7" height="42.3"/><rect class="cls-4" x="1076.1" y="1569.6" width="27.7" height="42.3"/><rect class="cls-4" x="1027.2" y="1569.6" width="27.7" height="42.3"/><polygon class="cls-5" points="1179 1359.7 1070.5 1359.7 1070.5 1265 1179 1306.6 1179 1359.7"/><polygon class="cls-5" points="1714 1651.5 1962.5 1651.5 1962.5 1381.3 1714 1467.3 1714 1651.5"/><rect class="cls-4" x="1720.6" y="1474.8" width="235.3" height="8.4"/><rect class="cls-4" x="1720.6" y="1501.6" width="235.3" height="8.4"/><rect class="cls-4" x="1720.6" y="1528.4" width="235.3" height="8.4"/><rect class="cls-4" x="1720.6" y="1555.4" width="235.3" height="8.3"/><rect class="cls-4" x="1720.6" y="1582.1" width="235.3" height="8.4"/><rect class="cls-4" x="1720.6" y="1609" width="235.3" height="8.4"/><rect class="cls-5" x="1049.6" y="1265.1" width="20.9" height="80.7"/><rect class="cls-4" x="1093.4" y="1305.6" width="42.3" height="27.7"/><rect class="cls-5" x="1925.9" y="749.9" width="14.4" height="122.1"/><rect class="cls-5" x="1897.2" y="749.9" width="14.4" height="122.1"/><rect class="cls-5" x="1868.9" y="749.9" width="14.4" height="122.1"/><rect class="cls-5" x="1839.8" y="749.9" width="14.4" height="122.1"/><path class="cls-7" d="M1060.3,530.6c8.7-102.2,56.9-180.3,115-180.3,61.1,0,116.7,88.1,102.1,219.5,4.1-1.3,18.6-8,22.4-5.7,33.1,19.7,44.7,14.1,44.7,54.6,0,9.1,1.2,5.9-1,14,66.4,0,93.4,83.7,93.4,146,0,79.6-55.4,144-123.8,144-54.8,0-101.3-41.5-117.6-99-21.4,19-47.4,30.1-75.3,30.1-73.4,0-132.9-76.4-132.9-170.7C987.3,616.4,1017,558.8,1060.3,530.6Z"/><path class="cls-8" d="M1087.3,608.4c124.1-16.7,142.6,118.4,142.6,118.4,147-66.9,207,59.2,207,59.2h0c-3.3,76.1-57.4,136.7-123.6,136.7-54.8,0-101.3-41.5-117.6-99-21.4,19-53.1,97.1-81,97.1-44.1,0-77.5-94.7-101.7-137.2C1012.1,781,964.2,624.9,1087.3,608.4Z"/><path class="cls-9" d="M1191,1049.1c26.5,0,49.2-15.6,67.5-46.3,13.8-23.2,25.2-55.2,34-95.3,14.7-67.5,16.9-135.8,16.9-136.5a8.55,8.55,0,0,0-17.1-.5c0,.7-2.1,67.6-16.5,133.5-12.8,58.4-37.8,128-84.7,128a8.6,8.6,0,0,0-8.6,8.6A8.49,8.49,0,0,0,1191,1049.1Z"/><path class="cls-9" d="M1190.2,1243.6h1.3a8.57,8.57,0,1,0-1.1-17.1c-1.1.1-2.8-.1-5.5-2.6-10.7-10.3-29.8-52.7-37.5-221.9-4.4-97.5-2.8-190.4-2.8-191.4a8.55,8.55,0,1,0-17.1-.3c0,.9-1.7,94.4,2.8,192.5,2.6,57.7,6.8,105.8,12.5,142.9,7.4,48.6,17.3,78.2,30.3,90.6C1179.4,1242.2,1185.7,1243.6,1190.2,1243.6Z"/><path class="cls-7" d="M382.9,771.6a106,106,0,0,1-3.5-26.9c0-42.3,24.5-76.5,54.7-76.5a42.37,42.37,0,0,1,12.8,2.1c4.9-114.4,55-204.3,116-204.3,58.2,0,106.3,81.5,115,188.1,43.3,29.4,72.9,89.5,72.9,159,0,33.1-6.7,64.1-18.5,90.7,40.2,24.7,65.7,62,65.7,103.8,0,74.5-81.4,134.9-181.9,134.9-75.2,0-139.7-33.8-167.4-82.1a104.69,104.69,0,0,1-23.8,2.8c-68.4,0-123.8-67.3-123.8-150.3C301.3,847.9,335.3,792.6,382.9,771.6Z"/><path class="cls-8" d="M382.9,771.6s120.4-46.9,212.2,35.7S734.4,719.1,678,654.2c70.3,48,72.9,115.6,72.9,159,0,33.1-6.7,64.1-18.5,90.7,40.2,24.7,65.7,62,65.7,103.8,0,74.5-81.4,134.9-181.9,134.9-75.2,0-139.7-33.8-167.4-82.1a104.69,104.69,0,0,1-23.8,2.8c-68.4,0-123.8-67.3-123.8-150.3C301.3,847.9,335.3,792.6,382.9,771.6Z"/><path class="cls-9" d="M524.4,1657.4a8.6,8.6,0,0,0,8.6-8.6V719.6a8.6,8.6,0,0,0-17.2,0v929.2A8.6,8.6,0,0,0,524.4,1657.4Z"/><path class="cls-9" d="M524.4,1049.7c24.3,0,44.9-8.7,61.2-25.8,45.5-47.8,41.1-145.5,40.9-149.7a8.56,8.56,0,1,0-17.1.9h0c0,.9,4.2,94.5-36.2,137-13.1,13.7-29,20.4-48.7,20.4a8.6,8.6,0,0,0-.1,17.2Z"/><path class="cls-9" d="M523.2,1244.2a9.7,9.7,0,0,0,1.7-.1,8.57,8.57,0,0,0-1.1-17.1c-3.3.2-6.5-1.2-10-4.3-10.6-9.5-30.7-42.9-46.3-160-9-67.7-12.1-130.9-12.2-131.5a8.61,8.61,0,0,0-17.2.8c0,.6,3.2,64.5,12.3,133,5.4,40.4,11.8,74.4,19,101.3,9.5,35.3,20.2,57.9,32.9,69.2C508.9,1241.3,515.9,1244.2,523.2,1244.2Z"/><path class="cls-7" d="M1059.9,851.3a152.25,152.25,0,0,0,3.5-32.3c0-50.8-24.5-92-54.7-92a33.28,33.28,0,0,0-12.8,2.6c-4.9-137.5-55-245.7-116-245.7-58.2,0-106.3,98.1-115,226.2C721.6,745.4,692,817.8,692,901.3c0,39.8,6.7,77.1,18.5,109-40.2,29.8-65.7,74.6-65.7,124.8,0,89.6,81.4,162.2,181.9,162.2,75.2,0,139.7-40.7,167.4-98.7a86.56,86.56,0,0,0,23.8,3.3c68.4,0,123.8-80.9,123.8-180.7C1141.5,943.1,1107.5,876.5,1059.9,851.3Z"/><path class="cls-8" d="M680.8,997.9c-11.7-31.9-6.5-58.5-6.5-98.3,0-10,18-18.2,18.8-27.9,168,11.5,161.3,180,161.3,180s139-58.5,185.3,23.9-45.8,122.9-45.8,122.9c-27.7,58-92.2,98.7-167.4,98.7-100.4,0-181.9-72.6-181.9-162.2C644.7,1085,640.7,1027.7,680.8,997.9Z"/><path class="cls-9" d="M881.7,1659.1a8.6,8.6,0,0,0,8.6-8.6V953.9a8.6,8.6,0,1,0-17.2,0v696.6A8.6,8.6,0,0,0,881.7,1659.1Z"/><path class="cls-9" d="M881.7,1160.7c24.3,0,44.9-8.7,61.2-25.8,45.5-47.8,41.1-145.5,40.9-149.7a8.56,8.56,0,1,0-17.1.9c0,1,4.2,94.6-36.2,137-13.1,13.7-29,20.4-48.7,20.4a8.6,8.6,0,0,0-8.6,8.6A8.45,8.45,0,0,0,881.7,1160.7Z"/><path class="cls-10" d="M386.9,1468.9c5.5,0,10-23.5,10-29v-201a10,10,0,0,0-20,0v249.5C376.9,1494,381.4,1468.9,386.9,1468.9Z"/><path class="cls-10" d="M787,1498.5a10,10,0,0,0,10-10V1239a10,10,0,0,0-20,0v249.5A10,10,0,0,0,787,1498.5Z"/><path class="cls-11" d="M342.3,1458.5H844.5a9.13,9.13,0,0,0,9.1-9.1v-52.5H342.3a9.13,9.13,0,0,0-9.1,9.1v43.4A9.13,9.13,0,0,0,342.3,1458.5Z"/><path class="cls-11" d="M368.4,1501H941.7a12.5,12.5,0,0,0,12.5-12.5h0a12.5,12.5,0,0,0-12.5-12.5H368.4Z"/><path class="cls-11" d="M337.2,1385.8H851l-2.4-52.5a9.13,9.13,0,0,0-9.1-9.1H337.2a9.13,9.13,0,0,0-9.1,9.1v43.4A9.13,9.13,0,0,0,337.2,1385.8Z"/><path class="cls-11" d="M330.4,1310.5H841.8V1258a9.13,9.13,0,0,0-9.1-9.1H330.4a9.13,9.13,0,0,0-9.1,9.1v43.4A9,9,0,0,0,330.4,1310.5Z"/><path class="cls-10" d="M357.9,1654.1h20V1520.9a91.6,91.6,0,1,1,183.2,0v133.2h20V1520.9a111.6,111.6,0,1,0-223.2,0v133.2Z"/><path class="cls-10" d="M853.7,1409.5A111.77,111.77,0,0,1,960.2,1521v133.2h-20V1521a91.82,91.82,0,0,0-86.5-91.5Z"/><path class="cls-12" d="M1476.9,1652.6l-5-537s-4.3-38.7-38.1-38.7c-36,0-38.1,38.7-38.1,38.7a4,4,0,0,0,4.2,3.3,4.29,4.29,0,0,0,4.5-3.3s1.6-29.8,29.4-29.8c26,0,29.4,29.8,29.4,29.8v537Z"/><path class="cls-12" d="M1458.5,1652.6h22.4l-2-23.4s.2-3.3-4.3-3.4c-4.2-.2-12.5-.8-13.3,1.8C1460.6,1629.8,1458.5,1652.6,1458.5,1652.6Z"/><path class="cls-13" d="M1436.1,1048.5l1.5,7.7s38-.1,46.8,40.5c0,0,2.4,16.9-9.8,13.3s-10.3-12.3-27.6-17-28.5-8.4-31.2-20.9l-2.8-14Z"/><path class="cls-14" d="M1301.9,715.5s10,39.5,18.7,75.6c3.5,14.6,6.7,28.5,9,39.2,2.3,10.9,3.7,18.3,3.2,19.2-7.5,12.2,6.2,86.8,17.1,113.8,1,2.4,2.3,5.2,3.9,8.3,15.2,29.8,55.7,88.4,55.7,88.4s11.4,1.2,18.9-1.6c6.2-2.4,10.5-10,10.5-10-3.6-5.8-18.3-74.7-37.1-113.4-8.1-16.5-20-169.8-35.6-190.5C1353.2,727.4,1301.9,715.5,1301.9,715.5Z"/><path class="cls-14" d="M1332.8,849.5c-7.5,12.2,6.2,86.8,17.1,113.8,1,2.4,2.3,5.2,3.9,8.3,14.5-64.3-9.6-155.5-9.6-155.5C1338.2,818.6,1333.3,848.7,1332.8,849.5Z"/><path class="cls-15" d="M1227.4,1593.5s-3.9,58.2,7.1,59c1.5.1,55.8.1,55.8.1h70.1s-1.2-17.1-21.4-20.6-54.2-17.8-66.5-44.6C1259.6,1559.2,1227.4,1593.5,1227.4,1593.5Z"/><path class="cls-16" d="M1122.1,1593.5s-3.9,58.2,7.1,59c1.5.1,55.8.1,55.8.1h70.1s-1.2-17.1-21.4-20.6-54.2-17.8-66.5-44.6C1154.2,1559.2,1122.1,1593.5,1122.1,1593.5Z"/><path d="M1224.1,1453.1c-1.7,24.6-5.2,56.3-4,84.8,1.8,39.9,3,73.6,3,73.6,26.3,8.9,74.6-1.9,74.6-1.9s17.1-100.8,31.2-181.4c6.3-36.1,11.6-67.3,13.5-82,6.3-47.6-6.8-300.9-6.8-300.9s-71.2-45.6-100.6-22.1-47.5,46.5-.1,304.2C1238.6,1347,1228,1398,1224.1,1453.1Z"/><path d="M1224.1,1453.1c-1.7,24.6-4.9,64-3.6,92.6,24.7-26.2,73.5-81.5,108.5-117.4,6.3-36.1,11.6-67.3,13.5-82,6.3-47.6-6.8-300.9-6.8-300.9s-71.2-45.6-100.6-22.1-47.5,46.5-.1,304.2C1238.6,1347,1228,1398,1224.1,1453.1Z"/><path d="M1271.4,1050.5S1265,1304,1255,1351s-62.1,262.2-62.1,262.2-48.9,4.5-74.4-6.5c0,0,1.6-99.6,10.3-158.2,8.1-54.7,22.6-104.7,20.5-124.5-27.5-260.6-7.6-282.1,23.5-303.3S1271.4,1050.5,1271.4,1050.5Z"/><path class="cls-13" d="M1317.5,658.1s-19.5,29.7-15.6,57.4L1273,785.2l-51.4-78.6s26.8-31.2,37.1-72.1Z"/><path class="cls-13" d="M1326.1,683.4s-71.2,3.1-72.5-39.6-20.5-71.2,32.7-74.9c43.8-3.1,58.3,15.2,62.2,29.3S1352.5,681.1,1326.1,683.4Z"/><path class="cls-14" d="M1151.8,1062.7c15.3,1.4,36.3,3.2,61.9,4.8l15.8.9c77.1,4.3,107.8-8.2,107.8-8.2s2-1.7,1.4-10.7c-3.4-46.6-13.3-60.4-12.1-69.3,2.7-19.9,51-182.5,51-182.5s.9-51.4-56.2-75.5a132.41,132.41,0,0,0-19.6-6.5c-2.5,6.6-9.4,17.7-26.9,15.7-25.9-3-44.4-18.3-52.3-26.1h-2c-1.9,5.5-3.4,11.2-4.8,16.9-4.7,20.2-7.4,41.4-19.8,57.3a428.66,428.66,0,0,0-31.6,46.3,399.47,399.47,0,0,0-19.3,37C1094.7,974.6,1133.9,1061,1151.8,1062.7Z"/><path class="cls-14" d="M1151.8,1062.7c15.3,1.4,36.3,3.2,61.9,4.8,7.4-125.5-43.7-246.1-43.7-246.1a59.86,59.86,0,0,0-5.5,4.5c-8.9,8.7-15.1,21.5-19.3,37C1130.1,919.8,1142.8,1012.3,1151.8,1062.7Z"/><path class="cls-17" d="M1349,642.7s13.9,55-9.7,62.7-85.9,1.5-85.9-65.9c0,0,32.8,19.5,48.4,19s25.7-9.5,40.2-2.5C1342.1,656.1,1347.4,655.8,1349,642.7Z"/><path class="cls-17" d="M1257,582.2c1.2-4.4,6.6-6.7,6.6-6.7,40.1-17.5,69.4,1.6,69.4,1.6-24.6-33-83.9-26.1-96.4,3.7-20.4,48.6,16.9,58.7,16.9,58.7s37.3-15.7,15.7-35.3c-7.1-6.5-10.6-12.3-11.8-17.3h0A15.23,15.23,0,0,1,1257,582.2Z"/><path class="cls-1" d="M1320.5,668.8s1.3,4.7,13,3.4c0,0,9.8-1,9.3-6.2C1342.8,666.1,1333.1,662.8,1320.5,668.8Z"/><path class="cls-18" d="M1026.8,806.9s-13,32.6-11.8,75.6c.9,32.9,30.9,134.5,40.1,149.2,8.8,14.1,72.4,65.3,88.1,70.1a2.5,2.5,0,0,0,2.9-1.5l14.1-23.8c1.3-2.3,1.1-5.7-.5-7.5l-59.2-72-18.8-115.6c-6.2-38.4-27.1-68-53.2-74.2A12.23,12.23,0,0,1,1026.8,806.9Z"/><path class="cls-13" d="M1041.5,1449.9l-11.4,47.3-7,29.3-23.4,97.6s-20,6.2-40.8,0a355.57,355.57,0,0,1-7.9-72.5c-.1-21.1,1.8-44.3,8-66.3a149.91,149.91,0,0,1,9.8-25.9C1001.7,1392,1041.5,1449.9,1041.5,1449.9Z"/><path class="cls-16" d="M1060.9,1652.6H951s-1.7-16.6,3.1-32.5a58.87,58.87,0,0,1,2.6-7s24.5,5.6,45.7,0c0,0,19.9,16.9,31.9,22.1S1059.7,1637.6,1060.9,1652.6Z"/><path class="cls-19" d="M1030.2,1497.2l-7,29.3a170.21,170.21,0,0,1-72.2,25c-.1-21.1,1.8-44.3,8-66.3,10.1-5.1,20.4-7.8,29.2-6.3C1010,1482.8,1022.9,1490.8,1030.2,1497.2Z"/><path class="cls-16" d="M1003.8,1652.6H951s-1.7-16.6,3.1-32.5C967.4,1624.2,994.4,1634.6,1003.8,1652.6Z"/><path class="cls-13" d="M947.9,1449.9l-11.4,47.3-7,29.3-23.4,97.6s-20,6.2-40.8,0a355.57,355.57,0,0,1-7.9-72.5c-.1-21.1,1.8-44.3,8-66.3a149.91,149.91,0,0,1,9.8-25.9C908.1,1392,947.9,1449.9,947.9,1449.9Z"/><path class="cls-16" d="M863.1,1613.1s24.5,5.6,45.7,0c0,0,19.9,17,31.9,22.1s25.3,2.4,26.6,17.4H857.4S855.1,1630.7,863.1,1613.1Z"/><path class="cls-19" d="M936.6,1497.2l-7,29.3a170.21,170.21,0,0,1-72.2,25c-.1-21.1,1.8-44.3,8-66.3,10.1-5.1,20.4-7.8,29.2-6.3C916.3,1482.8,929.3,1490.8,936.6,1497.2Z"/><path d="M1064.5,1494.1a22.27,22.27,0,0,1-21.6,16.5H866.6a22.76,22.76,0,0,1-22.7-24.5c1.9-24,2-58.6,4.8-85,1.2-11-1.2-32-1.9-36.5-17.8-117.7-23.3-248.9-21.4-275.4.3-3.7.4-5.7.4-5.7s12.8-1.1,32.4-1.8c56.8-2.2,170.1-1.9,188.9,35.3,19.2,37.8,30.8,288.9,30.8,288.9C1080.6,1429.3,1070.7,1471,1064.5,1494.1Z"/><path d="M848.6,1402.3c1.2-11-1.3-34-2-38.6-17.8-117.7-23.1-248.1-21.3-274.6.3-3.7.4-5.7.4-5.7s12.8-1.1,32.4-1.8c29.4,17.3,48.5,46.8,48.5,46.8S894.1,1354.6,848.6,1402.3Z"/><path class="cls-17" d="M964.7,598.6c-14.1-3.5-22.3,7.6-22.3,20.6a23.69,23.69,0,0,0,23.7,23.7c13.1,0,23.7-15.1,23.7-28.2S977.3,601.7,964.7,598.6Z"/><path class="cls-17" d="M957.4,734s-73.4-66.1-6.9-112.8c0,0,19.8-5.3,29.9-3.4,0,0,36.1-10.6,57.2,14s30.3,42.2,12.2,64.1S957.4,734,957.4,734Z"/><path class="cls-13" d="M873.2,1133s18.1,36.3-16.7,64.1c0,0-15.1,10.3-17.4-3.1s.4-8.7-3.3-27.6,1-38.3,11.8-46.7Z"/><path class="cls-19" d="M1160.5,1072.5s21.6,6.3,20.7,50.8c0,0-1.3,18.2-9.1,11.3s-1.4-15.6-13.2-18c-12.7-2.6-12.5-10.3-15.7-14.8Z"/><path class="cls-13" d="M1017.5,733.4s-.9,9.9-2.6,23.3c-.8,6.5-1.8,13.9-3,21.3-.8,5.3-1.8,10.7-2.8,15.9l-22.7,76.7-53.3-86.3s12.5-10.4,29.5-66.6l.3-.9Z"/><path class="cls-18" d="M1048.6,1111.8c.7,8.6-1.5,10.2-1.5,10.2s-32.8,11.9-115.3,7.8c-8.9-.4-17.3-.9-25.2-1.4-53.1-3.1-81.6-6.4-81.6-6.4s-43.5-100.5,38.3-224.3a391.76,391.76,0,0,1,32.8-42.8c13.2-15.1,16.2-35.3,21.2-54.5,1.4-5.5-2.7-6.7-.6-11.9,0,0,14.9-4.2,16.5-4.2,8.5,7.5,19.6,22,47.4,24.8,18.8,2,26.1-8.6,28.8-14.9,7.1,2.6,14.6,7,20.6,10,.8.4,1.6.8,2.3,1.1,37.1,18.8,54.8,61.9,42.9,101.8-13.7,45.6-37.4,125.4-39.4,138.8C1034.4,1054.3,1045,1067.4,1048.6,1111.8Z"/><path class="cls-19" d="M1014.9,756.7c-.8,6.5-3.6,24.4-4.8,31.9-56.5-22-49.1-64.9-47.5-70.8l.3-.9S992.8,738,1014.9,756.7Z"/><path class="cls-13" d="M1027,764.3s-65.2,2.1-65.9-38.5-9.6-67.7,32.1-70.8,50,12.3,53.5,25.8S1044,762.7,1027,764.3Z"/><path class="cls-17" d="M1032.7,648.8s-4.1,67.8-83.6,60.6C949.1,709.4,950.8,615.4,1032.7,648.8Z"/><path class="cls-17" d="M1017.5,655.6s20,33.8,30.1,42.6c0,0,27.1-41.8-30.1-42.6Z"/><path class="cls-18" d="M906.6,1128.4c-53.1-3.1-81.6-6.4-81.6-6.4s-43.5-100.5,38.3-224.3C879.9,936.3,918.9,1039.5,906.6,1128.4Z"/><path class="cls-18" d="M933.1,784.3s-63.1,12.9-91.2,45.5c-21.5,24.9-45.1,146.9-45.1,167,0,19.3,22.1,121.6,36,141.3a4.47,4.47,0,0,0,4.2,1.9l35.5-3.8a5.14,5.14,0,0,0,4.6-6l-20-129.4,70.1-124.3C927.2,876.6,968.5,827.6,933.1,784.3Z"/><path class="cls-13" d="M1174.8,1072.7s16.9,34-15.6,60c0,0-14.1,9.7-16.3-2.9s.3-8.2-3.1-25.8,1-35.8,11.1-43.7Z"/><path class="cls-14" d="M1220.8,705.4s-49.8,1.1-76,35.3c-20.1,26.2-41.4,166.8-41.4,188s22.7,138,35.4,150.7a48.28,48.28,0,0,0,19.2,0,38.52,38.52,0,0,0,18.5-9s-6.3-130.1-6.3-142.3c0-17.7,55.2-125.8,55.2-125.8S1253.9,750.9,1220.8,705.4Z"/><path class="cls-10" d="M746.5,1476a114.72,114.72,0,0,1,9.7-17.5h25.5a95.87,95.87,0,0,0-12.8,17.5Z"/><path class="cls-10" d="M759.2,1501a93.34,93.34,0,0,0-2.2,19.9v133.2H737V1520.9a108.31,108.31,0,0,1,1.8-19.9Z"/><path class="cls-20" d="M1898.9,1654.3h1.6a4.19,4.19,0,0,0,4.1-5.1L1702.9,765.5h-28.5l220.7,885.9A3.87,3.87,0,0,0,1898.9,1654.3Z"/><path class="cls-21" d="M1929.4,1650.3l130.9-884.9h-32.4L1921,1650.2a3.73,3.73,0,0,0,3.7,4.1h0A4.58,4.58,0,0,0,1929.4,1650.3Z"/><path class="cls-22" d="M2060.3,765.5l8.9,40.1-134.5,842.6a7.33,7.33,0,0,1-7.3,6.2h-2.7Z"/><path class="cls-21" d="M1571.9,1650.3l127-884.9h-28.5l-106.9,884.7a3.73,3.73,0,0,0,3.7,4.1h0A4.36,4.36,0,0,0,1571.9,1650.3Z"/><path class="cls-22" d="M1698.9,765.5l12.8,40.1-134.4,842.6a7.33,7.33,0,0,1-7.3,6.2h-2.7Z"/><polygon class="cls-22" points="1657.8 1100.9 2016.3 1100.9 2014.4 1079.4 1655.9 1079.4 1657.8 1100.9"/><polygon class="cls-20" points="2175.6 1293.6 2193 1293.6 2072.4 765.5 2060.3 765.5 2175.6 1293.6"/><polygon class="cls-23" points="1796.2 1293.6 2203.8 1293.6 2081.8 765.5 1670.3 765.5 1796.2 1293.6"/><polygon class="cls-24" points="1835.5 1201.8 2150.1 1201.8 2055.9 794.1 1738.3 794.1 1835.5 1201.8"/><path class="cls-20" d="M1793.8,1293.6h430.8a4.23,4.23,0,0,0,4.2-4.2v-11.2a4.23,4.23,0,0,0-4.2-4.2H1793.8a4.23,4.23,0,0,0-4.2,4.2v11.2A4.23,4.23,0,0,0,1793.8,1293.6Z"/><path class="cls-21" d="M1836.5,1293.6h421.4a4.23,4.23,0,0,0,4.2-4.2v-11.3a4.23,4.23,0,0,0-4.2-4.2H1836.5a4.23,4.23,0,0,0-4.2,4.2v11.3A4.23,4.23,0,0,0,1836.5,1293.6Z"/><path class="cls-23" d="M1758.3,812.1a2.5,2.5,0,1,1,2.5,2.5A2.36,2.36,0,0,1,1758.3,812.1Z"/><path class="cls-23" d="M2036,812.1a2.5,2.5,0,1,1,2.5,2.5A2.36,2.36,0,0,1,2036,812.1Z"/><path class="cls-16" d="M2041.2,1596.4s6.1,28.8,0,36.8-22.8,9.8-22.4,21.1h80.8s-2.7-20.3-11.3-29-17-59.1-17-59.1Z"/><path class="cls-16" d="M2153.5,1596.4s6.1,28.8,0,36.8-22.8,9.8-22.4,21.1h80.8s-2.7-20.3-11.3-29-17-59.1-17-59.1Z"/><path class="cls-18" d="M2318.4,1348.7a141.66,141.66,0,0,1-17.1,2.6h0c-29.2,3.2-83.8,5.6-136.3,6.1-18.7.2-37.1.2-54-.1h-.2c-14.7-.3-28.3-.8-39.9-1.5-12.9-.8-23.4-1.9-30.3-3.4-5.1-1-8.3-2.3-9.3-3.7-8.4-12.1-29.1-36.2-26.5-54.6a18.83,18.83,0,0,1,4.8-10.3s14.3-5.4,36.7-13h0c44.5-15.1,121.1-38.8,182.4-46.5h0c36.2-4.5,67.1-3.5,82.9,8.2C2367.8,1274.2,2354.3,1340,2318.4,1348.7Z"/><path class="cls-18" d="M2192.9,1580.3c-8.8,19.1-38,20.1-38,20.1q-9.9-22.65-18.5-43.2c-39.6-95.3-57.8-158.2-65.1-199.6-.1-.6-.2-1.2-.3-1.7-11.4-66.2,5.5-76.2,5.5-76.2.3-.1.7-.1,1-.2a54.18,54.18,0,0,1,40.2,7.4c20.1,12.6,35.4,38.2,46.8,69.2l.6,1.5c14.7,40.5,23,90.1,27,132.2C2196.5,1536.3,2195.8,1574,2192.9,1580.3Z"/><path class="cls-8" d="M2291.9,915.3s2.7.3,6.8,1c9.8,1.6,27.5,5.4,33.9,12,9.1,9.4,56.8,136.6,54.3,155.1s-55.9,46.8-74.1,49l-20.9-217.1Z"/><path class="cls-25" d="M2227.5,934.3c-.2.2.2,27.4,23.7,21.5,15.4-3.8,45.2-29.5,39.6-42.2-2.7-6.1-17.8-20.1-27.8-57.2l-2.7,1.3-45.1,22.4s5.2,14.7,9.1,28.8C2227.5,920.8,2229.9,932.3,2227.5,934.3Z"/><path class="cls-13" d="M2195.9,889.7s67.9,15.3,76.8-27.1,23.7-69-19.3-80.6-54.8,2.8-61.2,16.3S2178.4,884.6,2195.9,889.7Z"/><path class="cls-18" d="M2332.5,1286.6s-41.5,33.8-39,57.2-32.8-4.7-32.8-4.7l16-52.5Z"/><path class="cls-12" d="M2248.7,864.1c16.2,5.5,41-26.3,48.2-44.9,8.7-22.7-11.3-67.9-63.5-61.3a70.19,70.19,0,0,0-29.5,10.6c-11.4,7.4-41.8,26.7,7.3,47.3C2229.6,823.5,2234.5,859.3,2248.7,864.1Z"/><path class="cls-18" d="M2254.8,1348.7c-12.2,3-47.9,5.6-90.3,7.2-17.1.6-35.3,1.1-53.4,1.4h-.2c-13.4.2-26.7.3-39.6.2h-.3a18,18,0,0,0-17.3,22.9c.4,1.5.9,3,1.3,4.5,22.7,82.5,24.1,184.5,19.1,195.3-8.8,19.1-38,20.1-38,20.1-27.4-62.4-46.5-112.9-59.6-153.7-45.6-142.3-18.8-167.1-18.8-167.1s23.5-14.5,58.3-23.3c64.6-16.5,162.4-43.6,212.8-31.8,7.7,1.8,14.2,4.5,19.2,8.2,15.7,11.6,25.9,25.1,31.7,38.7C2294.9,1306.4,2280.6,1342.4,2254.8,1348.7Z"/><path class="cls-8" d="M2350,1273.7c-3.6,5-9.6,9.3-17.5,13h0c-56.2,26.2-190.8-31.8-184.4-70.6,2.3-13.7,12.9-13.6,21.2-35.9,6.4-17.3,11.1-33.6,10.9-49.5a70.27,70.27,0,0,0-3.2-20.1c-5.1-16.2-9.7-42.3-12.7-70-5-47.3-1.2-95.2,10.1-112,1.6-2.4,94.4-28.4,166.5-4.9,0,0,5.7,83.7-10.8,171.1a64.47,64.47,0,0,0,3,34.8C2346.4,1164.1,2372.3,1242.6,2350,1273.7Z"/><path class="cls-8" d="M2207.8,1111.8c9.7-30.3,12.5-68-7.2-106.8a133.66,133.66,0,0,0-36.2,35.6c2.9,27.8,7.6,53.8,12.7,70a70,70,0,0,1,3.1,20.6v1.2a24.37,24.37,0,0,1-.1,2.7v1.2l-.3,3.6c0,.4-.1.8-.1,1.2l-.3,2.7c-.1.5-.1.9-.2,1.4-.2,1.1-.3,2.2-.5,3.3a5,5,0,0,0-.2,1.2c-.2,1-.4,2-.6,2.9l-.3,1.5-.6,2.7-.3,1.2c-.3,1.2-.6,2.4-1,3.6-.1.5-.3,1-.4,1.5-.3.9-.5,1.7-.8,2.6-.1.5-.3,1-.4,1.4-.4,1.2-.8,2.5-1.2,3.7-.1.4-.3.8-.4,1.2-.3,1-.7,1.9-1,2.9-.2.5-.3.9-.5,1.4-.5,1.3-1,2.6-1.4,4-8.3,22.3-28.3,33.7-28.2,45,.1,29.1,135.2,87.8,191.4,61.5C2201.5,1306.8,2207.8,1112.6,2207.8,1111.8Z"/><path class="cls-12" d="M2184.6,795.2s7.1,50.9,46.6,69.4c0,0-25.8-59-12.7-70.3S2184.6,795.2,2184.6,795.2Z"/><path class="cls-13" d="M2223.5,838.3s6.8-13.8,13.1-11.1-2.4,24.9-6.5,24.7S2223.5,838.3,2223.5,838.3Z"/><path class="cls-26" d="M1955.3,998l4.9-2,32.7,80.6a2.18,2.18,0,0,1-1.2,2.8l-1.5.6a1.71,1.71,0,0,1-2.1-.9Z"/><path class="cls-20" d="M1948.4,973.9s4.6,11.4,8.9,17.8l2.9,4.3-4.9,2A146.85,146.85,0,0,0,1948.4,973.9Z"/><path class="cls-12" d="M2391,920.6c-28.8-21.1-59.4-46.7-53.2-68.7,14.4-51.1-27.7-113-71.5-94.8-23.5,9.8-42.6,138-10.2,173.3-2.9-7.1-6-19.7-7.3-42,.2,2.2,3.2,30.4,12.4,46.6,47.2,62.1-37.8,62.8-3.5,119.3,0,0,2.9,19.6,80.7-1.8a72.46,72.46,0,0,0,35.3-22c6.5-7.5,12.4-16.6,13.2-25.5a67.28,67.28,0,0,1-11.5,36.1c23.7-8.3,39.1-32.1,42.4-59.4C2420.2,961.3,2415.4,938.3,2391,920.6Z"/><path class="cls-23" d="M2384,1367.3H2049.5s7.8-32.4,201.5-27.6c15.4.4,29,1,41,1.9C2387.2,1348.2,2384,1367.3,2384,1367.3Z"/><path class="cls-27" d="M2129.3,1658.4c38.9-173.2,28.9-279.4,28.8-280.8-.1-2.7,5.5-5.1,8.5-5.2s16.5-.8,18,1.5c2,3,9.9,133.9-48.1,284.4l-7.2.1Z"/><path class="cls-27" d="M2037,1658.4c38.9-173.2,28.9-279.4,28.9-280.8-.1-2.7,5.5-5.1,8.5-5.2s16.5-.8,18,1.5c2,3,9.9,133.9-48.1,284.4l-7.3.1Z"/><path class="cls-28" d="M2389,1372.4a5.21,5.21,0,0,1-5.1,5.2H2047.6a5.15,5.15,0,0,1-3.6-1.5,5.23,5.23,0,0,1,3.6-8.9h336.3a5.15,5.15,0,0,1,3.6,1.5A5.58,5.58,0,0,1,2389,1372.4Z"/><path class="cls-29" d="M2302.4,1367.3H2049.5s7.8-32.4,202.1-27.6c15.4.4,29.1,1,41.2,1.9C2292.2,1345.6,2291.2,1358.8,2302.4,1367.3Z"/><path class="cls-30" d="M2389,1372.4a5.29,5.29,0,0,1-5.2,5.2H2204.3a5.58,5.58,0,0,1-3.7-1.5,4.82,4.82,0,0,1-1.5-3.7,5.23,5.23,0,0,1,5.2-5.2h179.5a5.12,5.12,0,0,1,5.2,5.2Z"/><path class="cls-30" d="M2378.6,1373.1h0c3.1,0,5.5-2.2,5.4-4.9-3.1-189.9,70.4-335.8,71.1-337.3,1.2-2.4,1-7.9-6.9-8.5-6.9-.6-11.2.9-12.4,3.3-.2.4-16.6,35.1-34.8,95.5-16.8,55.7-29.5,146.8-27.9,247.1A5.38,5.38,0,0,0,2378.6,1373.1Z"/><path class="cls-30" d="M2214.9,1373.1h0c3.1,0,5.5-2.2,5.4-4.9-3.1-189.9,70.4-335.8,71.1-337.3,1.2-2.4,1-7.9-6.9-8.5-6.9-.6-11.2.9-12.5,3.3-.2.4-16.6,35.1-34.8,95.5-16.8,55.7-29.5,146.8-27.9,247.1A5.48,5.48,0,0,0,2214.9,1373.1Z"/><path class="cls-30" d="M2427.1,1089.2a5.43,5.43,0,0,0,5.4-4c.5-2.6-1.5-5.1-4.5-5.6-4.7-.7-116.1-17.3-165.9-3.5-2.9.8-4.5,3.5-3.6,6.1a5.67,5.67,0,0,0,6.8,3.2c47.3-13.2,159.7,3.6,160.8,3.8Z"/><path class="cls-30" d="M2414.4,1121.2a5.43,5.43,0,0,0,5.4-4c.5-2.6-1.5-5.1-4.5-5.6-4.7-.7-116.1-17.3-165.9-3.5-2.9.8-4.5,3.5-3.6,6.1a5.67,5.67,0,0,0,6.8,3.2c47.4-13.2,159.7,3.6,160.8,3.8A3.33,3.33,0,0,1,2414.4,1121.2Z"/><path class="cls-30" d="M2412.3,1658.4c-38.9-173.2-28.9-279.4-28.8-280.8.1-2.7-5.5-5.1-8.5-5.2s-16.5-.8-18,1.5c-2,3-9.9,133.9,48.1,284.4l7.2.1Z"/><path class="cls-30" d="M2260.7,1658.4c-38.9-175.3-28.9-282.8-28.9-284.2.1-2.7-5.5-5.1-8.5-5.2s-16.5-.8-18,1.5c-2,3-9.9,135.5,48.1,287.9Z"/><path class="cls-31" d="M282.1,1660h2434a4.44,4.44,0,0,0,4.4-4.4h0a4.44,4.44,0,0,0-4.4-4.4H282.1a4.44,4.44,0,0,0-4.4,4.4h0A4.44,4.44,0,0,0,282.1,1660Z"/><path class="cls-23" d="M2033.4,1078c-2.9-1.5-5.8-3.1-8.7-4.7s-5.8-3.1-8.7-4.8c-5.8-3.2-11.6-6.4-17.3-9.7l-17.2-9.9-17.1-10.1-.8-.5.6-.8a23.56,23.56,0,0,0,2.2-3.8,37.89,37.89,0,0,0,1.8-4.2,80.65,80.65,0,0,0,2.9-8.7,122.87,122.87,0,0,0,3.4-18.1c.7-6.1,1.2-12.3,1.4-18.4s.1-12.3-.1-18.5c.5,6.2.7,12.3.7,18.5a162.56,162.56,0,0,1-.9,18.5,124.89,124.89,0,0,1-3.1,18.3,91.83,91.83,0,0,1-2.8,8.9c-.6,1.5-1.2,2.9-1.9,4.3a30,30,0,0,1-2.4,4.2l-.2-1.3,17.2,9.9,17.1,10.1c5.7,3.3,11.3,6.8,17,10.2,2.8,1.7,5.6,3.4,8.4,5.2S2030.6,1076.2,2033.4,1078Z"/><path class="cls-23" d="M1976.2,960.2c-1.6-9.2-3.9-18.2-6.4-27.2-1.2-4.5-2.4-9-3.3-13.6-.4-2.3-.8-4.6-1-7-.1-1.2-.1-2.4-.2-3.6.1-1.2.1-2.4.3-3.6a20.35,20.35,0,0,1,6.3-12.7c3.5-3.4,7.9-5.5,12.3-7.2a80.79,80.79,0,0,1,13.6-3.8c2.3-.5,4.6-.8,6.9-1.2,1.2-.2,2.3-.4,3.5-.5l3.5-.4,3.5-.3,3.5-.1c1.2,0,2.4-.1,3.5,0l3.5.2,1.8.1,1.8.2,3.5.4c1.2.2,2.3.5,3.5.7l1.7.4a10.93,10.93,0,0,1,1.7.5,43.17,43.17,0,0,1,12.9,5.9,35.27,35.27,0,0,1,9.9,10.1,37.79,37.79,0,0,1,3.3,6.3,57.56,57.56,0,0,1,1.9,6.8,129.67,129.67,0,0,1,2.2,13.9,187.16,187.16,0,0,1,.8,28,198.59,198.59,0,0,0-1.7-27.8c-.6-4.6-1.4-9.2-2.4-13.7a38.57,38.57,0,0,0-2-6.6,29.34,29.34,0,0,0-3.3-6c-5.1-7.6-13.2-12.8-22-15.2a14.24,14.24,0,0,0-1.6-.5l-1.7-.3c-1.1-.2-2.2-.5-3.4-.7l-3.4-.4-1.7-.2-1.7-.1-3.5-.1c-1.1-.1-2.3.1-3.5.1l-3.5.1-3.4.3-3.4.3c-1.2.1-2.3.3-3.4.5-2.3.4-4.6.7-6.8,1.2A87.07,87.07,0,0,0,1985,887a33.35,33.35,0,0,0-11.7,6.8,17.25,17.25,0,0,0-4,5.3c-.2.5-.5,1-.7,1.5l-.6,1.6a19.42,19.42,0,0,0-.7,3.3c-.2,1.1-.2,2.3-.3,3.4s0,2.3.1,3.4c.1,2.3.5,4.6.8,6.9.8,4.6,1.9,9.1,3,13.6C1972.9,941.8,1975.1,951,1976.2,960.2Z"/><path class="cls-23" d="M2070.9,948.1a147,147,0,0,1,6.8,23.5,121.64,121.64,0,0,1,1.8,12.1,56.25,56.25,0,0,1-.3,12.3,29.28,29.28,0,0,1-1.5,6l-.6,1.4c-.1.2-.2.5-.3.7l-.4.7c-.3.5-.5.9-.8,1.4l-.9,1.3a15.86,15.86,0,0,1-4.8,4.1,31.37,31.37,0,0,1-5.7,2.4,74.21,74.21,0,0,1-24.3,3.6,85.17,85.17,0,0,1-12.3-1.1,70.77,70.77,0,0,1-12-3.2,58.53,58.53,0,0,1-21-12.9,55.94,55.94,0,0,1-8-9.5c-1.1-1.8-2.3-3.5-3.2-5.3a24.37,24.37,0,0,1-1.4-2.8l-1.2-2.8a85.6,85.6,0,0,1-6-23.9l-.2-1.6,1.4.6c7.1,3.1,14.4,5.9,21.7,8.4,1.8.6,3.7,1.2,5.6,1.8s3.7,1.1,5.6,1.5a64.61,64.61,0,0,0,11.4,1.9c1,0,1.9.1,2.9.1s1.9-.1,2.8-.2,1.9-.3,2.8-.5a28.64,28.64,0,0,0,2.8-.7c3.7-1,7.3-2.5,11-3.9a43.68,43.68,0,0,1,11.4-3.1,25.35,25.35,0,0,1,11.6,1.5h-.1a5.22,5.22,0,0,0,2.8-2.5,11.45,11.45,0,0,0,1.5-3.6c.3-1.3.6-2.6.8-3.9S2070.8,949.4,2070.9,948.1Zm0,0v2c0,.7-.1,1.3-.1,2a26.29,26.29,0,0,1-.6,3.9,12,12,0,0,1-1.5,3.7,5.68,5.68,0,0,1-3,2.7h-.1a24.66,24.66,0,0,0-11.4-1.2,44.21,44.21,0,0,0-11.1,3.3c-3.6,1.4-7.2,3-11,4.1-.9.3-1.9.5-2.9.8l-2.9.6-3,.3a15.06,15.06,0,0,1-3-.1,75,75,0,0,1-11.7-1.8c-1.9-.4-3.8-1-5.7-1.5s-3.8-1.1-5.6-1.7c-7.5-2.4-14.8-5.2-22-8.3l1.3-.9a81.63,81.63,0,0,0,6,23.3l1.2,2.8c.4.9.9,1.8,1.4,2.7a54.83,54.83,0,0,0,3.1,5.2c.5.8,1.2,1.6,1.8,2.4s1.2,1.6,1.9,2.4l2,2.3,2.1,2.1a56.91,56.91,0,0,0,20.3,12.6,68.58,68.58,0,0,0,11.6,3.1,81.08,81.08,0,0,0,24.1.4,59.19,59.19,0,0,0,11.8-2.6c3.8-1.3,7.6-2.8,10-5.9l.9-1.2a14.8,14.8,0,0,0,.8-1.3l.4-.6c.1-.2.2-.5.3-.7l.6-1.4a29.09,29.09,0,0,0,1.5-5.8,54.28,54.28,0,0,0,.5-12.1,100,100,0,0,0-1.5-12.1,120.48,120.48,0,0,0-2.7-11.9C2073.4,955.8,2072.2,951.9,2070.9,948.1Z"/><path class="cls-23" d="M2047.3,884.9a53.69,53.69,0,0,0-8.8-7.1,55.82,55.82,0,0,0-10.1-5,64.22,64.22,0,0,0-22.1-3.8,69.55,69.55,0,0,0-11.2.9,66.79,66.79,0,0,0-10.9,2.7,58.31,58.31,0,0,0-19.6,10.6,35.55,35.55,0,0,0-11.9,18.3,69.81,69.81,0,0,0-2.8,22.2,40.34,40.34,0,0,0,2,10.9,31,31,0,0,0,5.3,9.6,32.84,32.84,0,0,0,18.7,11.1l-.5.1a59.21,59.21,0,0,0,13.4-10.5,29.47,29.47,0,0,0,4.8-6.9,13.34,13.34,0,0,0,1.1-8.1,11.67,11.67,0,0,0-1.5-3.9c-.4-.6-.8-1.2-1.2-1.7s-.9-1.1-1.4-1.6c-1.9-2.1-4.4-3.6-6.6-5.5a44.68,44.68,0,0,1-6.1-6.2,28.07,28.07,0,0,1-4.3-7.5,24,24,0,0,0,4.5,7.3,44,44,0,0,0,6.3,5.9c1.1.9,2.3,1.7,3.5,2.6l1.7,1.3,1.6,1.5c.5.5,1,1.1,1.5,1.6a20.28,20.28,0,0,1,1.3,1.8,16.18,16.18,0,0,1,1.7,4.1,11.4,11.4,0,0,1,.2,4.5,16.2,16.2,0,0,1-1.2,4.3,28,28,0,0,1-4.9,7.4,59.71,59.71,0,0,1-13.6,11l-.2.1-.3-.1a35,35,0,0,1-10.9-4.1,40.72,40.72,0,0,1-4.8-3.3c-.8-.6-1.4-1.3-2.2-2a20.89,20.89,0,0,1-2-2.2,33,33,0,0,1-5.7-10.2,40.4,40.4,0,0,1-2.2-11.4,62.9,62.9,0,0,1,.5-11.5c.3-1.9.6-3.8,1-5.7.2-.9.4-1.9.6-2.8l.7-2.8a35,35,0,0,1,4.8-10.6,42.48,42.48,0,0,1,7.8-8.6,55.32,55.32,0,0,1,9.6-6.4,60.85,60.85,0,0,1,10.6-4.4,72.39,72.39,0,0,1,11.2-2.5,73.25,73.25,0,0,1,11.5-.7,62.12,62.12,0,0,1,11.4,1.2,60.23,60.23,0,0,1,11,3.2,57.77,57.77,0,0,1,10.1,5.4A50.85,50.85,0,0,1,2047.3,884.9Z"/><path class="cls-23" d="M1866.3,914.9c-.6-3.1-1.9-6.2-4.3-8.1s-5.4-2.9-8.5-3.6-6.2-.9-9.4-1.3c-1.6-.2-3.2-.3-4.8-.5a23.58,23.58,0,0,0-4.6-.1,15.25,15.25,0,0,0-8.2,3.3,16.86,16.86,0,0,0-5,7.5,28.61,28.61,0,0,0-1.5,9.2,24.72,24.72,0,0,0,1.7,9.3,22.78,22.78,0,0,1-2.7-9.3,24.56,24.56,0,0,1,1-9.7,17.78,17.78,0,0,1,5.3-8.4,16.14,16.14,0,0,1,9.3-3.9,20.81,20.81,0,0,1,5,.1l4.8.6a80.09,80.09,0,0,1,9.6,1.6c3.1.8,6.4,2,8.8,4.4A13.47,13.47,0,0,1,1866.3,914.9Z"/><path class="cls-23" d="M1847.9,1035.8a121.51,121.51,0,0,1-15.5-13.2,130.87,130.87,0,0,1-13.4-15.4,86.48,86.48,0,0,1-10-17.8,57,57,0,0,1-4.4-20,48.41,48.41,0,0,1,3.8-20.2,53.23,53.23,0,0,1,4.9-9.1,50.29,50.29,0,0,1,6.6-7.9,53.53,53.53,0,0,1,17.2-11.3,56.85,56.85,0,0,1,9.9-3.1,39.94,39.94,0,0,1,10.4-1l-.4.1a60,60,0,0,1,8.2-2.6,82.76,82.76,0,0,1,8.4-1.6,61.2,61.2,0,0,1,17.1-.1,44.24,44.24,0,0,1,23.4,9.9c2.2,1.9,4.2,3.8,6.2,5.8a135.05,135.05,0,0,1,11.5,12.4,55.15,55.15,0,0,1,8.8,14.5,29.24,29.24,0,0,1,1.5,16.8,43.49,43.49,0,0,1-6.8,15.4c2.9-4.8,5.4-10,6.3-15.5a28.88,28.88,0,0,0-1.9-16.4,55,55,0,0,0-8.9-14.1,132.61,132.61,0,0,0-11.6-12.1c-2-1.9-4.1-3.8-6.2-5.6a51,51,0,0,0-6.9-4.5,48.44,48.44,0,0,0-15.8-4.9,61.53,61.53,0,0,0-16.6.2,73.16,73.16,0,0,0-16.1,4.1l-.2.1h-.2a36.29,36.29,0,0,0-9.8,1,45.6,45.6,0,0,0-9.5,3,50.91,50.91,0,0,0-16.6,10.9,51.53,51.53,0,0,0-6.4,7.6,57.6,57.6,0,0,0-4.8,8.8,49.83,49.83,0,0,0-3.8,19.5,55.31,55.31,0,0,0,4,19.6,84.14,84.14,0,0,0,9.6,17.7A137.38,137.38,0,0,0,1847.9,1035.8Z"/><path class="cls-23" d="M1901.7,1117.9c-3.1-1.1-6.1-2.2-9.2-3.3s-6.1-2.3-9.1-3.4c-6.1-2.3-12.1-4.7-18.2-7s-12.1-4.8-18.1-7.3-12-4.9-18-7.5l.2-1.6h0l.1-.1c.1-.1.2-.1.3-.2a4.35,4.35,0,0,1,.7-.6,17.41,17.41,0,0,0,1.2-1.4,21.37,21.37,0,0,0,2-3.2c1.2-2.3,2.3-4.7,3.3-7.1a154.56,154.56,0,0,0,4.9-15q2.1-7.65,3.9-15.3c1.2-5.1,2.3-10.3,3.3-15.5q-1.2,7.8-2.7,15.6c-1,5.2-2.1,10.3-3.4,15.5s-2.8,10.2-4.6,15.2a59.71,59.71,0,0,1-3.2,7.3,25,25,0,0,1-2.1,3.5,10.1,10.1,0,0,1-1.3,1.6,5,5,0,0,1-.8.7c-.2.1-.3.2-.5.3a2.39,2.39,0,0,1-.7.3l.2-1.6c6,2.4,12.1,4.8,18.1,7.2s12,4.9,18,7.4,12,5,17.9,7.6c3,1.3,6,2.6,8.9,3.9S1898.8,1116.5,1901.7,1117.9Z"/><path class="cls-23" d="M1930.4,972.6a57.3,57.3,0,0,1,2.6,11.6c.5,3.9.9,7.9,1.2,11.9a236.19,236.19,0,0,1,.2,23.8,119.53,119.53,0,0,1-3.2,23.7c-1.1,3.9-2.3,7.8-4.8,11.2a9.91,9.91,0,0,1-5.2,3.9,3.09,3.09,0,0,1-.8.2l-.7.1-1.5.2-3,.3a127.13,127.13,0,0,1-23.9-.4,94.29,94.29,0,0,1-11.8-2.2,49,49,0,0,1-11.2-4.3,36,36,0,0,1-9.7-7.2,29.35,29.35,0,0,1-6.4-10.2,52.9,52.9,0,0,1-2.4-11.7c-.5-3.9-1.1-7.8-1.5-11.8l2.1,11.7c.7,3.9,1.3,7.8,2.8,11.4a28.28,28.28,0,0,0,6.4,9.7,33.38,33.38,0,0,0,9.5,6.7,69.57,69.57,0,0,0,22.5,6.1,123,123,0,0,0,23.5.2l2.9-.3,1.5-.2.7-.1c.2,0,.4-.1.6-.1a8.21,8.21,0,0,0,4.1-3.1,31.81,31.81,0,0,0,4.5-10.5c2-7.6,2.8-15.5,3.4-23.3s.6-15.8.4-23.7c-.1-4-.3-7.9-.7-11.8-.2-2-.4-3.9-.7-5.9A46.46,46.46,0,0,0,1930.4,972.6Z"/><path class="cls-23" d="M1912.8,942.5a64.37,64.37,0,0,1-1,14.5c-.4,2.4-1,4.8-1.6,7.1-.3,1.2-.7,2.3-1.1,3.5s-.8,2.3-1.3,3.4a73.18,73.18,0,0,1-6.8,13c-.7,1-1.4,2-2.2,3l-2.3,2.8-2.5,2.7a32,32,0,0,1-2.7,2.5,28.33,28.33,0,0,1-2.8,2.3,62,62,0,0,1-6.1,4.2l-3.2,1.8a76.36,76.36,0,0,1-13.6,5.6,105.33,105.33,0,0,1-28.9,4.3h-.8l-.1-.8a102.78,102.78,0,0,1,.1-15.7,112.09,112.09,0,0,1,2.3-15.4q.9-3.75,2.1-7.5a57,57,0,0,1,2.9-7.2,56.34,56.34,0,0,1,3.8-6.8,46.79,46.79,0,0,1,4.8-6.2,48.27,48.27,0,0,0-4.4,6.4,55.8,55.8,0,0,0-3.5,6.9,85.88,85.88,0,0,0-4.5,14.7,98.43,98.43,0,0,0-1.9,15.3,131.88,131.88,0,0,0,.1,15.4l-.9-.8a109.22,109.22,0,0,0,28.4-4.4,80.15,80.15,0,0,0,13.3-5.3l3.1-1.7c1-.6,2-1.3,3-1.9a30.63,30.63,0,0,0,2.9-2.1,28.33,28.33,0,0,0,2.8-2.3,62.13,62.13,0,0,0,16.7-23.1A75.72,75.72,0,0,0,1912.8,942.5Z"/><path class="cls-23" d="M1913.1,969.1l5,5.2c1.7,1.7,3.4,3.5,5.1,5.2s3.4,3.4,5.2,5a57,57,0,0,0,5.5,4.5l-1.4.4a52,52,0,0,0,3.6-11.6,28.54,28.54,0,0,0-.2-12,17.5,17.5,0,0,0-2.4-5.4,18.56,18.56,0,0,0-4.1-4.3,22.61,22.61,0,0,0-2.6-1.6c-.5-.2-.9-.5-1.4-.7l-1.4-.6c-.9-.4-1.9-.7-2.9-1.1l-3-.8c1,.2,2.1.3,3.1.5a26.27,26.27,0,0,1,3,.8,25.13,25.13,0,0,1,5.8,2.6,17.77,17.77,0,0,1,7.6,10.2,27.74,27.74,0,0,1,.5,12.8,43.1,43.1,0,0,1-1.5,6.2,60.07,60.07,0,0,1-2.3,5.9l-.5,1-.9-.6a64.35,64.35,0,0,1-5.6-4.8c-1.7-1.7-3.4-3.5-5-5.3s-3.2-3.7-4.7-5.6S1914.6,971.1,1913.1,969.1Z"/><path class="cls-23" d="M2029.7,903.9a149,149,0,0,1,9.8,22.4c.7,1.9,1.4,3.9,1.9,5.8l1.8,5.9,1.5,5.9c.5,2,.9,4,1.4,6l.6,3,.5,3c.3,2,.7,4,1,6,.5,4.1,1.1,8.1,1.3,12.2a152.9,152.9,0,0,1,.1,24.4c-.3-8.1-.7-16.2-1.7-24.3-.4-4-1.1-8-1.7-12-.3-2-.7-4-1.1-6l-.6-3-.7-3a238.44,238.44,0,0,0-6.1-23.5A176.45,176.45,0,0,0,2029.7,903.9Z"/><path class="cls-23" d="M1911.5,983.8c1,5.3,1.6,10.7,2.1,16.1s.8,10.8.9,16.2c.1,2.7,0,5.4,0,8.1s-.1,5.4-.4,8.1a87,87,0,0,1-2.5,16.1c.6-5.4.8-10.8,1-16.2s0-10.8-.1-16.2-.3-10.8-.5-16.2C1911.8,994.6,1911.6,989.2,1911.5,983.8Z"/><path class="cls-23" d="M1872.2,1014.9c4.9.1,9.8.2,14.6.2s9.7-.1,14.6-.4c2.4-.2,4.8-.3,7.2-.6,1.2-.1,2.4-.2,3.6-.4s2.4-.3,3.6-.5a100,100,0,0,0,14.2-3.1,62.09,62.09,0,0,1-14,4.6,121.35,121.35,0,0,1-43.8.2Z"/><path class="cls-23" d="M1890.6,999c3.1-.4,6.2-.7,9.2-1s6.1-.6,9.2-1l4.6-.6,2.3-.3c.8-.1,1.5-.3,2.3-.4,3-.5,6-1.2,9-2a38.64,38.64,0,0,1-8.7,3.5,71.22,71.22,0,0,1-9.2,1.8,72.6,72.6,0,0,1-9.3.6C1896.8,999.5,1893.7,999.4,1890.6,999Z"/><path class="cls-23" d="M1899.2,988a54.09,54.09,0,0,1,5.5-1.2c1.8-.3,3.7-.7,5.5-.9s3.7-.5,5.5-.8,3.7-.5,5.6-.7a24.21,24.21,0,0,1-5.2,2.3,54.73,54.73,0,0,1-5.5,1.3,55.39,55.39,0,0,1-5.6.5A54.38,54.38,0,0,1,1899.2,988Z"/><path class="cls-23" d="M1903.9,1036.4a54.3,54.3,0,0,1,5.5-.6l5.4-.4c1.8-.1,3.6-.3,5.4-.5a34.13,34.13,0,0,0,5.4-1,11.81,11.81,0,0,1-5,2.5,26.3,26.3,0,0,1-5.5.9,52.3,52.3,0,0,1-5.6,0A20.5,20.5,0,0,1,1903.9,1036.4Z"/><path class="cls-23" d="M2012.9,936.4c4.2-.2,8.3-.5,12.5-.8s8.3-.8,12.4-1.4,8.1-1.4,12.2-2.4a101.22,101.22,0,0,0,11.8-3.8,47.35,47.35,0,0,1-11.4,5.3,73.1,73.1,0,0,1-12.3,2.8,106.93,106.93,0,0,1-12.6,1A74.89,74.89,0,0,1,2012.9,936.4Z"/><path class="cls-23" d="M2015.1,944.5c4.2-.2,8.3-.5,12.5-.8s8.3-.8,12.4-1.4,8.1-1.4,12.2-2.4a101.22,101.22,0,0,0,11.8-3.8,47.35,47.35,0,0,1-11.4,5.3,73.1,73.1,0,0,1-12.3,2.8,106.93,106.93,0,0,1-12.6,1A74.89,74.89,0,0,1,2015.1,944.5Z"/><path class="cls-13" d="M2170.8,934.9s-57.6,115.3-64.9,133.7c-2.8,7.1-105.1-24.3-105.1-24.3s-8.7-7.5-9.5-16-38-19.7-41.2-16.4,8.6,31.5,13.1,35.5,31,15.6,31,15.6c16.4,16,118.6,57.3,127.7,52.4,9.6-5.2,53.9-85,71-106.1S2203.3,919.1,2170.8,934.9Z"/><path class="cls-32" d="M2215.6,1008.4c-10.5,7.7-28.6,48.7-54,77.6a.31.31,0,0,1-.1.2,116.45,116.45,0,0,1-15.2,14.7c-42,33.8-74.1,24.6-74.1,24.6-21.4-11.8-28.2-36.2-30.3-52.7a105.25,105.25,0,0,1-.8-16.9s52.4,9.6,57.8,8.8,58.7-124.4,66-131.8c15.7-15.9,73.8-19.2,73.8-19.2C2255.8,906.7,2228.1,999.2,2215.6,1008.4Z"/><path class="cls-8" d="M2161.7,1086a.31.31,0,0,1-.1.2,116.45,116.45,0,0,1-15.2,14.7c-42,33.8-74.1,24.6-74.1,24.6-21.4-11.8-28.2-36.2-30.3-52.7C2048.8,1079.4,2097.8,1122.5,2161.7,1086Z"/><rect class="cls-33" x="2305.1" y="1668" width="437.9" height="24"/><text class="cls-34" transform="translate(2305.1 1687.76)">&quot;Designed by pch.vector / Freepik&quot;</text></svg>