<svg width="88" height="18" viewBox="0 0 88 18" fill="none" xmlns="http://www.w3.org/2000/svg">
<path d="M8.8 13.1397L11.8433 15.0222C12.4007 15.3672 13.0827 14.8572 12.936 14.2122L12.1293 10.6722L14.8207 8.2872C15.312 7.8522 15.048 7.0272 14.4027 6.9747L10.8607 6.6672L9.47467 3.3222C9.22534 2.7147 8.37467 2.7147 8.12534 3.3222L6.73934 6.6597L3.19734 6.9672C2.552 7.0197 2.288 7.8447 2.77934 8.2797L5.47067 10.6647L4.664 14.2047C4.51734 14.8497 5.19934 15.3597 5.75667 15.0147L8.8 13.1397Z" fill="#FFBB00"/>
<path d="M61.5998 13.1397L64.6431 15.0222C65.2005 15.3672 65.8825 14.8572 65.7358 14.2122L64.9291 10.6722L67.6205 8.2872C68.1118 7.8522 67.8478 7.0272 67.2025 6.9747L63.6605 6.6672L62.2745 3.3222C62.0251 2.7147 61.1745 2.7147 60.9251 3.3222L59.5391 6.6597L55.9971 6.9672C55.3518 7.0197 55.0878 7.8447 55.5791 8.2797L58.2705 10.6647L57.4638 14.2047C57.3171 14.8497 57.9991 15.3597 58.5565 15.0147L61.5998 13.1397Z" fill="#FFBB00"/>
<path d="M44.0002 13.1397L47.0435 15.0222C47.6009 15.3672 48.2829 14.8572 48.1362 14.2122L47.3295 10.6722L50.0209 8.2872C50.5122 7.8522 50.2482 7.0272 49.6029 6.9747L46.0609 6.6672L44.6749 3.3222C44.4255 2.7147 43.5749 2.7147 43.3255 3.3222L41.9395 6.6597L38.3975 6.9672C37.7522 7.0197 37.4882 7.8447 37.9795 8.2797L40.6709 10.6647L39.8642 14.2047C39.7175 14.8497 40.3995 15.3597 40.9569 15.0147L44.0002 13.1397Z" fill="#FFBB00"/>
<path d="M26.4001 13.1397L29.4434 15.0222C30.0008 15.3672 30.6828 14.8572 30.5361 14.2122L29.7294 10.6722L32.4208 8.2872C32.9121 7.8522 32.6481 7.0272 32.0028 6.9747L28.4608 6.6672L27.0748 3.3222C26.8254 2.7147 25.9748 2.7147 25.7254 3.3222L24.3394 6.6597L20.7974 6.9672C20.1521 7.0197 19.8881 7.8447 20.3794 8.2797L23.0708 10.6647L22.2641 14.2047C22.1174 14.8497 22.7994 15.3597 23.3568 15.0147L26.4001 13.1397Z" fill="#FFBB00"/>
<path d="M79.1999 13.1397L82.2432 15.0222C82.8006 15.3672 83.4826 14.8572 83.3359 14.2122L82.5292 10.6722L85.2206 8.2872C85.7119 7.8522 85.4479 7.0272 84.8026 6.9747L81.2606 6.6672L79.8746 3.3222C79.6252 2.7147 78.7746 2.7147 78.5252 3.3222L77.1392 6.6597L73.5972 6.9672C72.9519 7.0197 72.6879 7.8447 73.1792 8.2797L75.8706 10.6647L75.0639 14.2047C74.9172 14.8497 75.5992 15.3597 76.1566 15.0147L79.1999 13.1397Z" fill="#FFBB00"/>
</svg>
